<svg width="81" height="81" viewBox="0 0 81 81" fill="none" xmlns="http://www.w3.org/2000/svg">
<g clip-path="url(#clip0_336_827)">
<path d="M20.9032 39.1934H18.2903V75.7739H20.9032V39.1934Z" fill="#F9BA48"/>
<path d="M31.3546 39.1934H28.7417V75.7739H31.3546V39.1934Z" fill="#F9BA48"/>
<path d="M41.8063 39.1934H39.1934V75.7739H41.8063V39.1934Z" fill="#F9BA48"/>
<path d="M52.2579 39.1934H49.645V75.7739H52.2579V39.1934Z" fill="#F9BA48"/>
<path d="M62.7096 39.1934H60.0967V75.7739H62.7096V39.1934Z" fill="#F9BA48"/>
<path d="M80.9997 32.6613C80.9997 25.6314 76.0092 19.7446 69.2128 18.523C68.6538 8.21355 60.0913 0 49.645 0C42.5889 0 36.037 3.87879 32.5855 9.9892C31.3887 9.43401 30.0824 9.14527 28.7418 9.14527C25.5397 9.14527 22.5871 10.8345 20.9397 13.5296C19.6462 13.2214 18.3204 13.0645 16.9837 13.0645C7.61934 13.0645 0 20.6838 0 30.0484C0 36.9061 4.16614 43.075 10.4516 45.6996V77.0805C10.4516 79.2413 12.2099 81 14.3708 81H66.6287C68.7895 81 70.5481 79.2416 70.5481 77.0805V46.4822C76.6636 44.7511 80.9997 39.1059 80.9997 32.6613ZM67.9352 77.0805C67.9352 77.8004 67.3486 78.3871 66.6287 78.3871H14.3708C13.6509 78.3871 13.0645 77.8004 13.0645 77.0805V37.8871C13.0645 37.1672 13.6512 36.5805 14.3708 36.5805H66.6287C67.3486 36.5805 67.9352 37.1672 67.9352 37.8871V77.0805ZM70.5481 43.7372V37.8868C70.5481 35.726 68.7898 33.9673 66.6287 33.9673H14.3708C12.2099 33.9673 10.4516 35.7257 10.4516 37.8868V42.8225C5.69876 40.3913 2.61289 35.4738 2.61289 30.0481C2.61289 22.1245 9.06026 15.6771 16.9837 15.6771C18.4235 15.6771 19.8474 15.8914 21.2178 16.3134L22.3179 16.6517L22.7922 15.6027C23.8505 13.2668 26.185 11.7579 28.7418 11.7579C30.0509 11.7579 31.3129 12.1433 32.3921 12.8722L33.6527 13.7239L34.3046 12.3482C37.1042 6.43399 43.1257 2.61262 49.645 2.61262C59.0096 2.61262 66.6287 10.2317 66.6301 19.5311L66.6248 20.8455L67.8017 20.9617C73.8363 21.5601 78.3865 26.5899 78.3865 32.661C78.3868 37.6792 75.1705 42.1003 70.5481 43.7372Z" fill="#333333"/>
<path d="M23.5162 49.645H15.6775V52.2579H23.5162V49.645Z" fill="#333333"/>
<path d="M33.9676 54.8706H26.1289V57.4835H33.9676V54.8706Z" fill="#333333"/>
<path d="M44.4192 60.0967H36.5806V62.7096H44.4192V60.0967Z" fill="#333333"/>
<path d="M54.8707 53.5645H47.032V56.1773H54.8707V53.5645Z" fill="#333333"/>
<path d="M65.3223 49.645H57.4836V52.2579H65.3223V49.645Z" fill="#333333"/>
</g>
<defs>
<clipPath id="clip0_336_827">
<rect width="81" height="81" fill="white"/>
</clipPath>
</defs>
</svg>
