<svg width="98" height="98" viewBox="0 0 98 98" fill="none" xmlns="http://www.w3.org/2000/svg">
<g clip-path="url(#clip0_284_446)">
<path d="M69.3188 18.987L68.281 18.9654C67.8698 20.734 67.3417 22.5179 66.7126 24.2695C63.5143 33.1514 57.6706 42.0009 49.8134 49.8565C40.3903 59.2797 29.4157 65.8357 18.9131 68.3164L18.4619 68.619C21.7464 73.6982 26.2498 77.9128 31.5792 80.8208C39.5865 75.265 48.8549 67.4618 58.1379 58.1802C67.414 48.9057 75.2111 39.645 80.7662 31.6408C80.7677 31.6377 80.7715 31.6346 80.7731 31.6315C80.7762 31.6285 80.7792 31.6238 80.7823 31.6208C78.0152 26.5492 74.0685 22.2245 69.3188 18.987Z" fill="#F0BC5E"/>
<path d="M43.125 43.1659C49.9066 36.3859 55.1198 28.5365 57.8099 21.0635C58.6183 18.8215 59.2004 16.5464 59.5522 14.2959C56.1869 13.2665 52.6236 12.696 48.9211 12.696C47.1564 12.696 45.4225 12.8284 43.724 13.0724C42.3805 18.9208 38.0412 25.9518 31.9749 32.0166C25.9071 38.0805 18.8776 42.4237 13.0293 43.7672C12.7867 45.4634 12.6543 47.198 12.6543 48.9627C12.6543 52.6661 13.2248 56.2332 14.2581 59.6001C23.6781 58.081 34.1854 52.1048 43.125 43.1659Z" fill="#F0BC5E"/>
<path d="M94.4341 3.4506C92.8981 1.91305 90.1448 0.0813904 85.7547 0.0813904C79.4051 0.0813904 70.4469 4.27366 59.132 12.5235C55.8537 11.6065 52.4244 11.1191 48.9205 11.1191C28.0546 11.1191 11.0769 28.0945 11.0769 48.9627C11.0769 52.4582 11.5596 55.8797 12.4743 59.1519C10.6272 61.6888 8.94341 64.1611 7.4767 66.5078C2.18651 74.9701 -3.98987 87.0788 3.40762 94.474C4.94286 96.01 7.69613 97.8424 12.0878 97.844C19.543 97.844 29.499 92.175 38.7435 85.3996C42.0442 86.3204 45.4612 86.8063 48.9205 86.8063C69.7863 86.8063 86.764 69.8301 86.764 48.9627C86.764 45.5026 86.2782 42.0857 85.3574 38.7842C87.2037 36.2488 88.8867 33.7812 90.3642 31.416C95.656 22.9529 101.832 10.8458 94.4341 3.4506ZM48.9205 14.2727C61.3017 14.2727 72.6859 20.8703 78.8992 31.5338C73.2757 39.5156 65.7011 48.3837 57.0209 57.0639C48.3399 65.7433 39.4719 73.3179 31.4916 78.9407C20.8265 72.7296 14.2305 61.347 14.2305 48.9627C14.2305 29.8338 29.7923 14.2727 48.9205 14.2727ZM80.8633 28.6627C77.8344 23.9007 73.82 19.9648 69.1842 17.0237C79.7315 10.0312 86.0765 8.47747 87.7419 10.1398C89.0931 11.491 88.491 16.5617 82.3393 26.403C81.8804 27.139 81.3653 27.9043 80.8633 28.6627ZM28.6205 80.9055C27.8637 81.4067 27.0991 81.9226 26.3623 82.383C16.5188 88.534 11.4488 89.1368 10.0991 87.7871C8.43295 86.1202 9.99206 79.7737 16.9822 69.2295C19.9211 73.8637 23.8569 77.8766 28.6205 80.9055ZM83.6104 48.9627C83.6104 68.0908 68.0486 83.6526 48.9205 83.6526C46.5853 83.6526 44.2739 83.4032 42.008 82.9443C52.1234 75.1295 60.8636 66.601 63.7108 63.753C70.9736 56.4918 77.5195 49.0651 82.9044 42.0495C83.361 44.3154 83.6104 46.6275 83.6104 48.9627ZM61.4811 61.5233C44.9738 78.0329 23.2987 94.6903 12.0863 94.6903C8.7748 94.6888 6.75142 93.3591 5.63656 92.2443C-0.170244 86.439 5.43176 75.7293 10.1499 68.1794C11.227 66.457 12.4281 64.66 13.7247 62.8199C14.1751 63.9655 14.6655 65.0965 15.2253 66.1906C9.3253 74.83 3.51926 85.666 7.86782 90.0145C8.88644 91.0332 10.2946 91.5429 12.0878 91.5429C15.7881 91.5429 21.1214 89.3747 28.0323 85.057C37.4146 79.1932 48.5009 70.0441 59.2522 59.2936C70.0027 48.5431 79.151 37.4561 85.0155 28.0745C91.4267 17.8159 93.0967 11.0306 89.9747 7.90849C85.6322 3.56147 74.7901 9.36828 66.1484 15.2675C65.0605 14.7108 63.9379 14.2219 62.7977 13.7723C72.5804 6.87371 80.4853 3.23502 85.7547 3.23502C89.0646 3.23502 91.088 4.56392 92.2044 5.68032C98.0112 11.4864 92.4092 22.1961 87.691 29.746C81.7041 39.3232 72.3964 50.6088 61.4811 61.5233Z" fill="black"/>
<path d="M51.9111 77.1891L52.2376 80.325C53.3478 80.2088 54.4642 80.0325 55.5567 79.7984L54.8992 76.7148C53.9137 76.9258 52.909 77.0852 51.9111 77.1891Z" fill="black"/>
<path d="M58.8785 78.8937C69.4289 75.3851 77.43 66.4601 79.7559 55.601L76.6731 54.9404C74.5789 64.7116 67.3778 72.7443 57.8838 75.9025L58.8785 78.8937Z" fill="black"/>
<path d="M48.9209 41.0786H52.0745V44.2322H48.9209V41.0786Z" fill="black"/>
<path d="M31.5762 71.0381H34.7298V74.1918H31.5762V71.0381Z" fill="black"/>
<path d="M67.8428 34.7714H70.9964V37.925H67.8428V34.7714Z" fill="black"/>
<path d="M31.5762 22.1568H34.7298V25.3104H31.5762V22.1568Z" fill="black"/>
</g>
<defs>
<clipPath id="clip0_284_446">
<rect width="97.8438" height="97.8438" fill="white"/>
</clipPath>
</defs>
</svg>
