<svg width="116" height="116" viewBox="0 0 116 116" fill="none" xmlns="http://www.w3.org/2000/svg">
<circle cx="58" cy="58" r="58" fill="#F2EEE8"/>
<g clip-path="url(#clip0_404_7)">
<path d="M89.2729 25.2659C88.412 25.2659 87.62 25.549 86.9686 26.017C86.2685 24.891 85.0292 24.133 83.6085 24.133C82.7475 24.133 81.9555 24.4161 81.3041 24.8841C80.6042 23.7581 79.365 23.0001 77.9442 23.0001C75.7579 23.0001 73.9791 24.7787 73.9791 26.9653V39.9602C71.2477 38.4774 68.3284 37.7273 65.273 37.7273C58.9755 37.7273 54.4021 40.5571 51.6752 42.9316C50.667 43.8085 50.1277 45.0797 50.1945 46.4186C50.2626 47.7668 50.9332 48.9903 52.0366 49.7706C53.6815 50.934 55.9042 50.8141 57.4403 49.4806C59.0252 48.1053 61.6693 46.4671 65.273 46.4671C69.8306 46.4671 72.8859 49.792 73.9791 51.2071V62.7658C72.8859 64.1809 69.8306 67.5046 65.273 67.5046C61.6683 67.5046 59.0241 65.8664 57.4403 64.4935C55.903 63.1567 53.6791 63.0411 52.0366 64.2023C50.9332 64.9829 50.2614 66.2064 50.1945 67.5544C50.1277 68.8935 50.667 70.1644 51.6752 71.0413C54.4033 73.4146 58.9755 76.2445 65.273 76.2445C67.0766 76.2445 68.8552 75.9749 70.5807 75.4425V93.2376H89.8394V71.406C91.951 69.9265 93.2381 67.4965 93.2381 64.9158V29.2303C93.2381 27.0445 91.4595 25.2659 89.2729 25.2659ZM90.9723 64.9162C90.9723 66.917 89.8858 68.7917 88.1367 69.8092L87.5736 70.1366V90.9723H72.8462V72.144L71.2839 72.7851C69.3524 73.5781 67.3302 73.9792 65.2728 73.9792C59.6764 73.9792 55.5971 71.4529 53.1624 69.3322C52.682 68.913 52.4249 68.3068 52.4565 67.6669C52.4893 67.0167 52.8122 66.4265 53.3446 66.0503C54.133 65.4908 55.2071 65.5531 55.9546 66.2033C57.8295 67.8301 60.9687 69.7685 65.2726 69.7685C71.2508 69.7685 75.0176 65.2041 76.0291 63.8041L76.2444 63.5095V50.4634L76.0291 50.1665C75.0176 48.7674 71.2506 44.2008 65.2726 44.2008C60.971 44.2008 57.8307 46.1402 55.9546 47.7682C55.2081 48.4163 54.1351 48.4786 53.3446 47.92C52.8122 47.5439 52.4893 46.9536 52.4565 46.3034C52.4249 45.6644 52.682 45.0573 53.1624 44.6381C55.598 42.5196 59.6764 39.9933 65.2728 39.9933C68.5345 39.9933 71.6293 40.9756 74.4739 42.9138L76.2447 44.1214V26.9653C76.2447 26.0284 77.0071 25.2659 77.944 25.2659C78.8809 25.2659 79.6433 26.0284 79.6433 26.9653V28.0981V50.1891H81.9091V28.0981C81.9091 27.1613 82.6716 26.3988 83.6085 26.3988C84.5453 26.3988 85.3078 27.1613 85.3078 28.0981V29.231V50.1891H87.5736V29.2308C87.5736 28.2939 88.3361 27.5315 89.2729 27.5315C90.2098 27.5315 90.9723 28.2939 90.9723 29.2308V64.9162Z" fill="#333333"/>
<path d="M46.7903 70.5808H40.0486L40.743 68.9937C40.9978 68.4137 41.1261 67.8042 41.1261 67.1824C41.1261 64.6832 39.0937 62.6508 36.5945 62.6508C34.0953 62.6508 32.0629 64.6832 32.0629 67.1824C32.0629 67.8042 32.1909 68.4137 32.4459 68.9937L33.1404 70.5808H26.3987C24.525 70.5808 23 69.0558 23 67.1821V60.4404L24.5871 61.1349C25.1671 61.3897 25.7766 61.5179 26.3984 61.5179C28.8976 61.5179 30.93 59.4855 30.93 56.9863C30.93 54.4871 28.8976 52.4547 26.3984 52.4547C25.7766 52.4547 25.1671 52.5827 24.5871 52.8377L23 53.5322V46.7905C23 44.9168 24.525 43.3918 26.3987 43.3918H29.8935C29.829 43.019 29.7971 42.6408 29.7971 42.2589C29.7971 38.5103 32.8456 35.4618 36.5943 35.4618C40.3429 35.4618 43.3914 38.5103 43.3914 42.2589C43.3914 42.6408 43.3597 43.019 43.295 43.3918H46.7903C48.664 43.3918 50.189 44.9168 50.189 46.7905V50.2853C50.5618 50.2208 50.94 50.1889 51.3219 50.1889C55.0705 50.1889 58.119 53.2374 58.119 56.9861C58.119 60.7347 55.0705 63.7832 51.3219 63.7832C50.94 63.7832 50.5618 63.7515 50.189 63.6868V67.1816C50.189 69.0558 48.664 70.5808 46.7903 70.5808Z" fill="#38A564"/>
</g>
<defs>
<clipPath id="clip0_404_7">
<rect width="70.238" height="70.238" fill="white" transform="translate(23 23)"/>
</clipPath>
</defs>
</svg>
