<svg width="92" height="74" viewBox="0 0 92 74" fill="none" xmlns="http://www.w3.org/2000/svg">
<path d="M10.7279 67.6052H18.0765C20.5073 67.6052 22.4854 65.6272 22.4854 63.196V17.6362H6.31907V63.1964C6.31876 65.6272 8.29713 67.6052 10.7279 67.6052Z" fill="#F9BA48"/>
<path d="M29.8335 67.6052H37.1817C39.6125 67.6052 41.5906 65.6272 41.5906 63.196V17.6362H25.4243V63.1964C25.4246 65.6272 27.4027 67.6052 29.8335 67.6052Z" fill="#F9BA48"/>
<path d="M48.9394 67.6052H56.2877C58.7185 67.6052 60.6965 65.6272 60.6965 63.196V17.6362H44.5303V63.1964C44.5303 65.6272 46.5083 67.6052 48.9394 67.6052Z" fill="#F9BA48"/>
<path d="M91.5598 0V73.4838H0.43988V0H91.5598ZM88.6205 2.93935H66.5755V70.5445H88.6205V2.93935ZM3.37923 70.5445H63.6361V2.93935H3.37923V70.5445Z" fill="#333333"/>
<path d="M14.4019 22.0449C17.2384 22.0449 19.5457 24.3522 19.5457 27.1887C19.5457 30.0252 17.2384 32.3325 14.4019 32.3325C11.5654 32.3325 9.25808 30.0252 9.25808 27.1887C9.25808 24.3522 11.5657 22.0449 14.4019 22.0449ZM14.4019 29.3935C15.6174 29.3935 16.6063 28.4043 16.6063 27.189C16.6063 25.9735 15.6171 24.9846 14.4019 24.9846C13.1866 24.9846 12.1974 25.9738 12.1974 27.189C12.1974 28.4043 13.1866 29.3935 14.4019 29.3935Z" fill="#333333"/>
<path d="M6.31907 51.439H22.4854V54.3783H6.31907V51.439Z" fill="#333333"/>
<path d="M33.5076 22.0449C36.3441 22.0449 38.6514 24.3522 38.6514 27.1887C38.6514 30.0252 36.3441 32.3325 33.5076 32.3325C30.6711 32.3325 28.3638 30.0252 28.3638 27.1887C28.3638 24.3522 30.6711 22.0449 33.5076 22.0449ZM33.5076 29.3935C34.7231 29.3935 35.712 28.4043 35.712 27.189C35.712 25.9735 34.7228 24.9846 33.5076 24.9846C32.292 24.9846 31.3031 25.9738 31.3031 27.189C31.3031 28.4043 32.292 29.3935 33.5076 29.3935Z" fill="#333333"/>
<path d="M25.4245 51.439H41.5908V54.3783H25.4245V51.439Z" fill="#333333"/>
<path d="M52.613 22.0449C55.4496 22.0449 57.7568 24.3522 57.7568 27.1887C57.7568 30.0252 55.4496 32.3325 52.613 32.3325C49.7765 32.3325 47.4693 30.0252 47.4693 27.1887C47.4693 24.3522 49.7765 22.0449 52.613 22.0449ZM52.613 29.3935C53.8286 29.3935 54.8175 28.4043 54.8175 27.189C54.8175 25.9735 53.8283 24.9846 52.613 24.9846C51.3978 24.9846 50.4086 25.9738 50.4086 27.189C50.4086 28.4043 51.3978 29.3935 52.613 29.3935Z" fill="#333333"/>
<path d="M44.5305 51.439H60.6968V54.3783H44.5305V51.439Z" fill="#333333"/>
<path d="M85.6812 5.87891V44.5H69.5149V5.87891H85.6812ZM72.4542 41.5606H82.7418V8.81826H72.4542V41.5606Z" fill="#333333"/>
<path d="M77.598 49.9688C82.0555 49.9688 85.6812 53.596 85.6812 58.0519C85.6812 62.5078 82.0555 66.135 77.598 66.135C73.1405 66.135 69.5149 62.5078 69.5149 58.0519C69.5149 53.596 73.1405 49.9688 77.598 49.9688ZM77.598 63.1957C80.4345 63.1957 82.7418 60.8884 82.7418 58.0519C82.7418 55.2154 80.4345 52.9081 77.598 52.9081C74.7615 52.9081 72.4542 55.2154 72.4542 58.0519C72.4542 60.8884 74.7615 63.1957 77.598 63.1957Z" fill="#333333"/>
<path d="M6.3186 5.87891H60.6968V14.697H6.31891V5.87891H6.3186ZM9.25795 11.7576H57.7574V8.81826H9.25795V11.7576Z" fill="#333333"/>
</svg>
