<svg width="132" height="27" viewBox="0 0 132 27" fill="none" xmlns="http://www.w3.org/2000/svg">
<path d="M31.7402 3.0072H39.0501C41.0954 3.0072 42.8562 3.3807 44.3324 4.12769C45.8086 4.87469 46.938 5.95071 47.7206 7.35577C48.5031 8.76083 48.8944 10.4416 48.8944 12.398C48.8944 14.3544 48.5031 16.044 47.7206 17.4669C46.9558 18.8719 45.8353 19.948 44.3591 20.6949C42.8829 21.4419 41.1132 21.8154 39.0501 21.8154H31.7402V3.0072ZM38.7566 18.454C42.7584 18.454 44.7593 16.4353 44.7593 12.398C44.7593 8.37844 42.7584 6.36867 38.7566 6.36867H35.9021V18.454H38.7566Z" fill="black"/>
<path d="M63.5594 16.0262H55.0223C55.1468 17.0756 55.4847 17.8404 56.0361 18.3206C56.6052 18.783 57.4056 19.0142 58.4371 19.0142C59.113 19.0142 59.7799 18.9075 60.438 18.6941C61.1139 18.4629 61.7275 18.1427 62.2788 17.7337L63.3459 20.4282C62.7057 20.9262 61.9231 21.3174 60.9983 21.602C60.0912 21.8866 59.1752 22.0289 58.2504 22.0289C56.045 22.0289 54.302 21.4242 53.0214 20.2147C51.7587 18.9875 51.1273 17.3246 51.1273 15.2259C51.1273 13.892 51.4029 12.7092 51.9543 11.6777C52.5056 10.6461 53.2704 9.84575 54.2486 9.27661C55.2268 8.68969 56.3384 8.39623 57.5834 8.39623C59.4153 8.39623 60.8649 8.99205 61.932 10.1837C63.0169 11.3753 63.5594 12.9938 63.5594 15.0391V16.0262ZM57.6901 11.1708C56.9254 11.1708 56.3118 11.4198 55.8493 11.9178C55.4047 12.398 55.129 13.1005 55.0223 14.0254H60.1712C60.1179 13.0827 59.8778 12.3713 59.4509 11.8911C59.0418 11.4109 58.4549 11.1708 57.6901 11.1708Z" fill="black"/>
<path d="M74.1027 8.39623C75.2232 8.39623 76.2192 8.68969 77.0907 9.27661C77.98 9.84575 78.6647 10.655 79.1449 11.7043C79.6429 12.7359 79.8919 13.9275 79.8919 15.2792C79.8919 16.6309 79.6429 17.8226 79.1449 18.8541C78.6647 19.8679 77.9889 20.6505 77.1174 21.2018C76.2459 21.7532 75.241 22.0289 74.1027 22.0289C73.2135 22.0289 72.4042 21.851 71.675 21.4953C70.9636 21.1218 70.4122 20.606 70.021 19.948V26.6175H65.9925V8.71637H69.9676V10.5572C70.3589 9.88132 70.9191 9.35665 71.6483 8.98315C72.3775 8.59187 73.1957 8.39623 74.1027 8.39623ZM72.9289 18.9609C73.8715 18.9609 74.6007 18.6496 75.1165 18.0271C75.6323 17.3868 75.8902 16.4709 75.8902 15.2792C75.8902 14.0698 75.6323 13.1361 75.1165 12.478C74.6007 11.8022 73.8715 11.4642 72.9289 11.4642C71.9863 11.4642 71.257 11.7933 70.7413 12.4513C70.2255 13.0916 69.9676 14.0165 69.9676 15.2259C69.9676 16.4175 70.2255 17.3424 70.7413 18.0004C71.257 18.6407 71.9863 18.9609 72.9289 18.9609Z" fill="black"/>
<path d="M82.3539 3.0072H86.3823V21.8154H82.3539V3.0072Z" fill="black"/>
<path d="M95.7624 22.0289C94.3752 22.0289 93.1568 21.7532 92.1075 21.2018C91.0581 20.6327 90.2489 19.8412 89.6798 18.8275C89.1106 17.7959 88.8261 16.5865 88.8261 15.1992C88.8261 13.8119 89.1106 12.6114 89.6798 11.5976C90.2489 10.5661 91.0581 9.77461 92.1075 9.22326C93.1568 8.6719 94.3752 8.39623 95.7624 8.39623C97.1497 8.39623 98.368 8.6719 99.4174 9.22326C100.467 9.77461 101.276 10.5661 101.845 11.5976C102.414 12.6114 102.699 13.8119 102.699 15.1992C102.699 16.5865 102.414 17.7959 101.845 18.8275C101.276 19.8412 100.467 20.6327 99.4174 21.2018C98.368 21.7532 97.1497 22.0289 95.7624 22.0289ZM95.7624 18.9609C97.7188 18.9609 98.697 17.707 98.697 15.1992C98.697 13.9364 98.4392 12.9938 97.9234 12.3713C97.4254 11.7488 96.7051 11.4376 95.7624 11.4376C93.806 11.4376 92.8278 12.6914 92.8278 15.1992C92.8278 17.707 93.806 18.9609 95.7624 18.9609Z" fill="black"/>
<path d="M117.909 8.74305L110.012 26.6175H105.93L108.438 21.0951L103.049 8.74305H107.237L110.546 17.0667L113.96 8.74305H117.909Z" fill="black"/>
<path d="M127.358 8.39623C128.923 8.39623 130.088 8.85865 130.853 9.7835C131.617 10.6906 132 12.0689 132 13.9186V21.8154H127.971V14.1054C127.971 13.2161 127.802 12.5669 127.464 12.1579C127.144 11.7488 126.637 11.5443 125.944 11.5443C125.108 11.5443 124.432 11.8111 123.916 12.3446C123.418 12.8782 123.169 13.5896 123.169 14.4789V21.8154H119.141V8.71637H123.063V10.5839C123.525 9.87243 124.121 9.32997 124.85 8.95647C125.597 8.58298 126.433 8.39623 127.358 8.39623Z" fill="black"/>
<path fill-rule="evenodd" clip-rule="evenodd" d="M13.2826 0.00334167C13.0006 0.435387 12.5635 0.756986 12.0503 0.889087V9.38159C12.886 9.52178 13.6099 9.99174 14.0837 10.6531L20.9968 7.12594C20.9709 6.99406 20.9572 6.85783 20.9572 6.71841C20.9572 6.22864 21.1252 5.77813 21.4067 5.42133L13.2826 0.00334167ZM23.0533 8.81416C23.0532 8.81416 23.0531 8.81416 23.053 8.81416C22.4107 8.81416 21.8359 8.52533 21.4515 8.07033L14.5432 11.595C14.6257 11.8763 14.67 12.1738 14.67 12.4817C14.67 12.8161 14.6178 13.1383 14.5211 13.4406L21.3829 16.9787C21.7657 16.4747 22.3713 16.1493 23.053 16.1493C23.0531 16.1493 23.0532 16.1493 23.0533 16.1493V8.81416ZM21.4742 19.6234C21.1523 19.255 20.9572 18.7728 20.9572 18.245C20.9572 18.1445 20.9643 18.0455 20.978 17.9487L14.0392 14.3709C13.5653 15.0004 12.8603 15.446 12.0503 15.5819V24.0744C12.6873 24.2383 13.207 24.6942 13.4584 25.2908L21.4742 19.6234ZM9.6103 25.2537C9.86741 24.6753 10.3788 24.2349 11.0025 24.0744V15.5819C10.2065 15.4483 9.51195 15.0157 9.03836 14.4035L1.95643 18.0167C2.04624 18.2502 2.09547 18.5038 2.09547 18.769C2.09547 19.1396 1.99925 19.4878 1.83043 19.7899L9.6103 25.2537ZM0 16.6732C0.508646 16.6733 0.974949 16.8545 1.33789 17.156L8.54429 13.4792C8.43949 13.1658 8.38272 12.8304 8.38272 12.4817C8.38272 12.1499 8.43411 11.8301 8.52938 11.5299L1.66528 7.99064C1.28236 8.49123 0.678887 8.81407 0 8.81416V16.6732ZM1.6433 5.41795C1.92641 5.77527 2.09547 6.22709 2.09547 6.71841C2.09547 6.82163 2.08801 6.92307 2.0736 7.02233L9.00907 10.5984C9.48308 9.9659 10.1899 9.51794 11.0025 9.38159V0.889087C10.5013 0.76009 10.0727 0.450434 9.79025 0.0336632L1.6433 5.41795Z" fill="#3E71EF"/>
<path fill-rule="evenodd" clip-rule="evenodd" d="M0 8.81423V16.6733C0.508646 16.6734 0.974949 16.8546 1.33789 17.156L8.54429 13.4793C8.43949 13.1659 8.38272 12.8305 8.38272 12.4818C8.38272 12.15 8.43411 11.8302 8.52938 11.53L1.66528 7.99072C1.28236 8.4913 0.678887 8.81414 0 8.81423ZM1.82782 19.7946L9.60221 25.2722C9.85658 24.6847 10.3721 24.2367 11.0025 24.0744V15.5819C10.2065 15.4484 9.51195 15.0158 9.03836 14.4036L1.95643 18.0168C2.04624 18.2502 2.09547 18.5039 2.09547 18.769C2.09547 19.1416 1.99826 19.4915 1.82782 19.7946Z" fill="#21459D"/>
<path fill-rule="evenodd" clip-rule="evenodd" d="M13.4509 25.2723L21.4723 19.6207C21.1518 19.2526 20.9577 18.7715 20.9577 18.2451C20.9577 18.1446 20.9648 18.0455 20.9785 17.9487L14.0397 14.3709C13.5657 15.0004 12.8608 15.4461 12.0508 15.5819V24.0744C12.6811 24.2367 13.1966 24.6848 13.4509 25.2723ZM23.0532 16.1493V8.81422C22.411 8.81415 21.8363 8.52533 21.4519 8.07039L14.5436 11.5951C14.6261 11.8764 14.6704 12.1739 14.6704 12.4818C14.6704 12.8161 14.6182 13.1384 14.5215 13.4406L21.3834 16.9787C21.7661 16.4748 22.3716 16.1494 23.0532 16.1493Z" fill="#00BECA"/>
</svg>
