<svg width="75" height="75" viewBox="0 0 75 75" fill="none" xmlns="http://www.w3.org/2000/svg">
<g clip-path="url(#clip0_336_794)">
<path d="M61.6933 36.2904H52.0159C50.0151 36.2904 48.3867 34.6622 48.3867 32.6612V4.83887H65.3221V32.6615C65.3224 34.6622 63.6943 36.2904 61.6933 36.2904Z" fill="#F9BA48"/>
<path d="M42.3385 36.2904H32.6611C30.6603 36.2904 29.0322 34.6622 29.0322 32.6612V4.83887H45.9677V32.6615C45.9677 34.6622 44.3395 36.2904 42.3385 36.2904Z" fill="#F9BA48"/>
<path d="M22.984 36.2904H13.3066C11.3059 36.2904 9.67773 34.6622 9.67773 32.6612V4.83887H26.6132V32.6615C26.6129 34.6622 24.9848 36.2904 22.984 36.2904Z" fill="#F9BA48"/>
<path d="M24.1935 52.016V49.5967H3.62915V66.5321H30.242V49.5967H26.6128V52.016H27.8226V64.1127H6.0485V52.016H24.1935Z" fill="#333333"/>
<path d="M71.3706 45.9676H59.2739V41.1289H66.5319C68.5327 41.1289 70.1608 39.5008 70.1608 37.4997V3.62915C70.161 1.62812 68.5329 0 66.5319 0H8.46758C6.46682 0 4.83869 1.62812 4.83869 3.62915V37.5C4.83869 39.5008 6.46682 41.1291 8.46758 41.1291H15.7256V45.9678H3.62915C1.62812 45.9676 0 47.5957 0 49.5967V66.5322C0 68.5329 1.62812 70.1613 3.62889 70.1613H10.8869V72.5807H8.46758V75H25.403V72.5807H22.9837V70.1613H30.2417C32.2425 70.1613 33.8708 68.5332 33.8708 66.5322V49.5967C33.8708 47.596 32.2427 45.9676 30.2417 45.9676H18.1452V41.1289H56.8548V45.9676H44.758C42.7573 45.9676 41.1289 47.5957 41.1289 49.5967V66.5322C41.1289 68.5329 42.757 70.1613 44.758 70.1613H52.0161V72.5807H49.5967V75H66.5322V72.5807H64.1128V70.1613H71.3708C73.3716 70.1613 75 68.5332 75 66.5322V49.5967C74.9997 47.5957 73.3716 45.9676 71.3706 45.9676ZM20.5646 72.5804H13.3065V70.161H20.5646V72.5804ZM31.4515 49.5967V66.5322C31.4515 67.1998 30.9096 67.742 30.2417 67.742H3.62915C2.96154 67.742 2.4196 67.2 2.4196 66.5322V49.5967C2.4196 48.9291 2.96154 48.3869 3.62915 48.3869H30.242C30.9096 48.3869 31.4515 48.9289 31.4515 49.5967ZM8.46784 38.7095C7.80023 38.7095 7.2583 38.1676 7.2583 37.4997V3.62915C7.2583 2.96128 7.80023 2.41935 8.46784 2.41935H66.5322C67.1998 2.41935 67.742 2.96128 67.742 3.62915V37.5C67.742 38.1676 67.2 38.7098 66.5322 38.7098H8.46784V38.7095ZM61.6932 72.5804H54.4352V70.161H61.6932V72.5804ZM72.5804 66.5322C72.5804 67.1998 72.0385 67.742 71.3706 67.742H44.7578C44.0902 67.742 43.548 67.2 43.548 66.5322V49.5967C43.548 48.9291 44.0899 48.3869 44.7578 48.3869H71.3706C72.0382 48.3869 72.5804 48.9289 72.5804 49.5967V66.5322Z" fill="#333333"/>
<path d="M67.7417 52.016H68.9513V64.1127H47.1772V52.016H65.3224V49.5967H44.7578V66.5321H71.3706V49.5967H67.7417V52.016Z" fill="#333333"/>
<path d="M56.8546 22.9839C54.1859 22.9839 52.0159 25.1539 52.0159 27.8226C52.0159 30.4912 54.1859 32.6613 56.8546 32.6613C59.5232 32.6613 61.6933 30.4912 61.6933 27.8226C61.6933 25.1539 59.5232 22.9839 56.8546 22.9839ZM56.8546 30.2419C55.5204 30.2419 54.4352 29.1568 54.4352 27.8226C54.4352 26.4884 55.5204 25.4032 56.8546 25.4032C58.1887 25.4032 59.2739 26.4884 59.2739 27.8226C59.2739 29.1568 58.189 30.2419 56.8546 30.2419Z" fill="#333333"/>
<path d="M60.4836 9.67725H58.0642V20.5644H60.4836V9.67725Z" fill="#333333"/>
<path d="M55.6449 9.67725H53.2256V20.5644H55.6449V9.67725Z" fill="#333333"/>
<path d="M37.5001 22.9839C34.8314 22.9839 32.6614 25.1539 32.6614 27.8226C32.6614 30.4912 34.8314 32.6613 37.5001 32.6613C40.1687 32.6613 42.3388 30.4912 42.3388 27.8226C42.3388 25.1539 40.1684 22.9839 37.5001 22.9839ZM37.5001 30.2419C36.1659 30.2419 35.0807 29.1568 35.0807 27.8226C35.0807 26.4884 36.1659 25.4032 37.5001 25.4032C38.8343 25.4032 39.9194 26.4884 39.9194 27.8226C39.9194 29.1568 38.8343 30.2419 37.5001 30.2419Z" fill="#333333"/>
<path d="M41.1288 9.67725H38.7095V20.5644H41.1288V9.67725Z" fill="#333333"/>
<path d="M36.2902 9.67725H33.8708V20.5644H36.2902V9.67725Z" fill="#333333"/>
<path d="M18.1453 22.9839C15.4767 22.9839 13.3066 25.1539 13.3066 27.8226C13.3066 30.4912 15.4767 32.6613 18.1453 32.6613C20.814 32.6613 22.984 30.4912 22.984 27.8226C22.984 25.1539 20.8137 22.9839 18.1453 22.9839ZM18.1453 30.2419C16.8111 30.2419 15.726 29.1568 15.726 27.8226C15.726 26.4884 16.8111 25.4032 18.1453 25.4032C19.4795 25.4032 20.5647 26.4884 20.5647 27.8226C20.5647 29.1568 19.4795 30.2419 18.1453 30.2419Z" fill="#333333"/>
<path d="M21.7741 9.67725H19.3547V20.5644H21.7741V9.67725Z" fill="#333333"/>
<path d="M16.9355 9.67725H14.5161V20.5644H16.9355V9.67725Z" fill="#333333"/>
</g>
<defs>
<clipPath id="clip0_336_794">
<rect width="75" height="75" fill="white"/>
</clipPath>
</defs>
</svg>
