<svg width="75" height="75" viewBox="0 0 75 75" fill="none" xmlns="http://www.w3.org/2000/svg">
<g clip-path="url(#clip0_284_1563)">
<path d="M70.7661 2.41965C69.8467 2.41965 69.0011 2.72195 68.3055 3.22163C67.5579 2.01929 66.2347 1.20995 64.7176 1.20995C63.7982 1.20995 62.9526 1.51224 62.257 2.01193C61.5097 0.809591 60.1864 0.000244141 58.6693 0.000244141C56.3348 0.000244141 54.4354 1.89939 54.4354 4.2342V18.1102C51.5188 16.5268 48.4016 15.7259 45.139 15.7259C38.4146 15.7259 33.531 18.7476 30.6193 21.2831C29.5427 22.2194 28.9668 23.5767 29.0382 25.0064C29.1109 26.446 29.827 27.7525 31.0052 28.5857C32.7616 29.828 35.135 29.6999 36.7753 28.2761C38.4676 26.8075 41.291 25.0582 45.139 25.0582C50.0055 25.0582 53.2681 28.6086 54.4354 30.1196V42.462C53.2681 43.973 50.0055 47.5221 45.139 47.5221C41.2899 47.5221 38.4664 45.7728 36.7753 44.3068C35.1337 42.8794 32.759 42.7559 31.0052 43.9958C29.827 44.8293 29.1096 46.1358 29.0382 47.5752C28.9668 49.0051 29.5427 50.3621 30.6193 51.2985C33.5323 53.8327 38.4146 56.8545 45.139 56.8545C47.0649 56.8545 48.964 56.5666 50.8065 55.9981V74.9997H71.3709V51.6879C73.6257 50.1081 75 47.5134 75 44.7577V6.65284C75 4.31879 73.1009 2.41965 70.7661 2.41965ZM72.5806 44.7582C72.5806 46.8946 71.4205 48.8964 69.5528 49.9829L68.9515 50.3324V72.5808H53.2257V52.476L51.5574 53.1606C49.4949 54.0073 47.3357 54.4356 45.1388 54.4356C39.1629 54.4356 34.807 51.738 32.2073 49.4735C31.6944 49.0259 31.4198 48.3787 31.4536 47.6953C31.4886 47.001 31.8333 46.3708 32.4019 45.9692C33.2437 45.3717 34.3907 45.4382 35.1888 46.1325C37.1909 47.8696 40.5428 49.9394 45.1385 49.9394C51.5221 49.9394 55.5442 45.0656 56.6244 43.5706L56.8543 43.2561V29.3255L56.6244 29.0084C55.5442 27.5145 51.5219 22.6383 45.1385 22.6383C40.5454 22.6383 37.1921 24.7092 35.1888 26.4475C34.3917 27.1395 33.246 27.2061 32.4019 26.6096C31.8333 26.208 31.4886 25.5777 31.4536 24.8835C31.4198 24.2011 31.6944 23.5529 32.2073 23.1052C34.8081 20.8431 39.1629 18.1455 45.1388 18.1455C48.6216 18.1455 51.9263 19.1944 54.9637 21.264L56.8545 22.5535V4.2342C56.8545 3.23382 57.6687 2.41965 58.6691 2.41965C59.6694 2.41965 60.4836 3.23382 60.4836 4.2342V5.4439V29.0326H62.903V5.4439C62.903 4.44352 63.7172 3.62935 64.7176 3.62935C65.718 3.62935 66.5321 4.44352 66.5321 5.4439V6.6536V29.0326H68.9515V6.65335C68.9515 5.65297 69.7657 4.8388 70.7661 4.8388C71.7665 4.8388 72.5806 5.65297 72.5806 6.65335V44.7582Z" fill="#333333"/>
<path d="M25.4032 50.8068H18.2045L18.946 49.1121C19.2181 48.4928 19.355 47.842 19.355 47.1779C19.355 44.5093 17.1848 42.3391 14.5162 42.3391C11.8476 42.3391 9.67736 44.5093 9.67736 47.1779C9.67736 47.842 9.81403 48.4928 10.0864 49.1121L10.8279 50.8068H3.62911C1.62835 50.8068 0 49.1784 0 47.1777V39.9789L1.69465 40.7204C2.31398 40.9925 2.96481 41.1294 3.62885 41.1294C6.29746 41.1294 8.46766 38.9592 8.46766 36.2906C8.46766 33.622 6.29746 31.4518 3.62885 31.4518C2.96481 31.4518 2.31398 31.5885 1.69465 31.8608L0 32.6023V25.4035C0 23.4028 1.62835 21.7744 3.62911 21.7744H7.36084C7.292 21.3764 7.25796 20.9724 7.25796 20.5647C7.25796 16.5619 10.5131 13.3068 14.5159 13.3068C18.5187 13.3068 21.7739 16.5619 21.7739 20.5647C21.7739 20.9724 21.7401 21.3764 21.671 21.7744H25.4032C27.404 21.7744 29.0323 23.4028 29.0323 25.4035V29.1353C29.4304 29.0664 29.8343 29.0324 30.242 29.0324C34.2448 29.0324 37.5 32.2876 37.5 36.2903C37.5 40.2931 34.2448 43.5483 30.242 43.5483C29.8343 43.5483 29.4304 43.5145 29.0323 43.4454V47.1772C29.0323 49.1784 27.404 50.8068 25.4032 50.8068Z" fill="#3E71EF"/>
</g>
<defs>
<clipPath id="clip0_284_1563">
<rect width="75" height="75" fill="white"/>
</clipPath>
</defs>
</svg>
