<svg width="90" height="90" viewBox="0 0 90 90" fill="none" xmlns="http://www.w3.org/2000/svg">
<g clip-path="url(#clip0_284_390)">
<path d="M56.6126 84.867C56.6126 83.5054 56.0726 82.2004 55.1087 81.238L53.7602 79.8894C52.7977 78.927 51.4927 78.387 50.1326 78.387H47.7476C46.0318 78.387 44.4292 77.5291 43.4769 76.1022L40.0555 70.9707C39.4937 70.1273 39.1932 69.1373 39.1932 68.1241V63.1451C39.1932 61.1404 37.5689 59.5161 35.5642 59.5161C33.5595 59.5161 31.9352 61.1404 31.9352 63.1451V66.1006C31.9352 67.4622 31.3952 68.7672 30.4313 69.7296L29.0827 71.0781C28.1203 72.0406 26.8153 72.5806 25.4552 72.5806C22.6202 72.5806 20.3223 74.8785 20.3223 77.7135V79.8386V80.8765C27.3379 85.7119 35.8357 88.5483 44.9997 88.5483C49.0236 88.5483 52.9139 87.9909 56.6126 86.9704V84.867Z" fill="#F0BC5E"/>
<path d="M52.2575 2.06555V7.81684C52.2575 10.7157 49.9088 13.0644 47.0099 13.0644C45.0982 13.0644 43.5479 14.6147 43.5479 16.5265C43.5479 17.9418 44.4101 19.2149 45.7238 19.7418L49.7099 21.3372C50.3937 21.6101 50.8916 22.2096 51.0367 22.9325L51.6319 25.9054C51.9556 27.5225 50.7174 29.0322 49.0669 29.0322C47.6225 29.0322 46.4511 30.2036 46.4511 31.648V33.6744C46.4511 35.1188 47.6225 36.2902 49.0669 36.2902H51.5317C52.7337 36.2902 53.7091 37.2657 53.7091 38.4676C53.7091 40.4723 55.3335 42.0967 57.3382 42.0967H58.064C60.4693 42.0967 62.4188 40.1472 62.4188 37.7418V35.5644C62.4188 33.5597 64.0432 31.9354 66.0479 31.9354C68.0525 31.9354 69.6769 33.5597 69.6769 35.5644V41.3709C69.6769 46.5822 65.4527 50.8064 60.2414 50.8064C59.0395 50.8064 58.064 51.7818 58.064 52.9838V57.3386C58.064 58.5406 57.0885 59.516 55.8866 59.516C54.6846 59.516 53.7091 60.4915 53.7091 61.6935C53.7091 64.9959 54.7558 68.2127 56.698 70.8836L57.0725 71.3989C59.6027 74.877 63.644 76.9354 67.9466 76.9354H74.0317H74.5949C83.174 68.982 88.5479 57.6202 88.5479 44.9999C88.5479 23.4231 72.8516 5.52184 52.2575 2.06555Z" fill="#F0BC5E"/>
<path d="M1.45117 45C1.45117 50.6395 2.53407 56.0221 4.48504 60.9677H7.55665C8.29407 60.9677 9.00101 60.6745 9.52214 60.1534L12.2483 57.4272C12.7708 56.9061 13.0641 56.1992 13.0641 55.4617V53.5877C13.0641 52.0519 14.3096 50.8064 15.8439 50.8064C16.8208 50.8064 17.7252 51.3188 18.2289 52.1564L21.0204 56.8103C21.4878 57.5884 22.3297 58.0645 23.237 58.0645H23.5433C24.9717 58.0645 26.1286 56.9076 26.1286 55.4792C26.1286 55.2672 26.1025 55.0567 26.0517 54.8521L24.7597 49.6858C24.7046 49.4666 24.677 49.2401 24.677 49.0122V43.425C24.677 41.8906 25.9225 40.6451 27.4568 40.6451H34.9602C36.496 40.6451 37.7415 39.3996 37.7415 37.8653V35.6806C37.7415 35.1319 37.5789 34.5948 37.2741 34.139L35.3042 31.185C35.0008 30.7277 34.8383 30.1906 34.8383 29.6419V24.554C34.8383 23.0197 33.5928 21.7742 32.0584 21.7742H30.3615C28.8257 21.7742 27.5802 20.5287 27.5802 18.9943V18.9609C27.5802 18.0029 28.0737 17.1116 28.8867 16.6035L37.8867 10.9785C38.6996 10.4705 39.1931 9.57917 39.1931 8.6211V6.95755C39.1931 6.22013 38.8999 5.5132 38.3787 4.99207L36.2899 2.9032L35.8965 2.4111C16.217 6.59755 1.45117 24.0721 1.45117 45Z" fill="#F0BC5E"/>
<path d="M45 90C20.1876 90 0 69.8124 0 45C0 20.1876 20.1876 0 45 0C69.8124 0 90 20.1876 90 45C90 69.8124 69.8124 90 45 90ZM45 2.90323C21.7873 2.90323 2.90323 21.7873 2.90323 45C2.90323 68.2127 21.7873 87.0968 45 87.0968C68.2127 87.0968 87.0968 68.2127 87.0968 45C87.0968 21.7873 68.2127 2.90323 45 2.90323Z" fill="black"/>
<path d="M62.4198 15.9677H59.5166V18.871H62.4198V15.9677Z" fill="black"/>
<path d="M76.9355 27.5806H74.0322V30.4839H76.9355V27.5806Z" fill="black"/>
<path d="M33.3866 76.9355H30.4834V79.8387H33.3866V76.9355Z" fill="black"/>
<path d="M24.6776 31.9355H21.7744V34.8387H24.6776V31.9355Z" fill="black"/>
<path d="M15.9677 23.2258H13.0645V26.129H15.9677V23.2258Z" fill="black"/>
<path d="M11.6132 39.1935H8.70996V42.0968H11.6132V39.1935Z" fill="black"/>
</g>
<defs>
<clipPath id="clip0_284_390">
<rect width="90" height="90" fill="white"/>
</clipPath>
</defs>
</svg>
