<svg width="152" height="31" viewBox="0 0 152 31" fill="none" xmlns="http://www.w3.org/2000/svg">
<g opacity="0.6">
<path d="M36.5193 3.45581H44.9298C47.2831 3.45581 49.309 3.88554 51.0075 4.74501C52.7059 5.60447 54.0053 6.84251 54.9057 8.45912C55.8061 10.0757 56.2563 12.0095 56.2563 14.2605C56.2563 16.5115 55.8061 18.4555 54.9057 20.0926C54.0258 21.7092 52.7366 22.9472 51.0382 23.8067C49.3397 24.6662 47.3036 25.0959 44.9298 25.0959H36.5193V3.45581ZM44.5922 21.2283C49.1964 21.2283 51.4986 18.9057 51.4986 14.2605C51.4986 9.63577 49.1964 7.3234 44.5922 7.3234H41.3078V21.2283H44.5922Z" fill="white"/>
<path d="M73.1293 18.435H63.3069C63.4501 19.6424 63.8389 20.5223 64.4733 21.0748C65.1281 21.6069 66.049 21.8729 67.2358 21.8729C68.0134 21.8729 68.7808 21.7501 69.538 21.5046C70.3156 21.2385 71.0216 20.8702 71.6559 20.3995L72.8837 23.4997C72.1471 24.0727 71.2467 24.5229 70.1826 24.8503C69.1389 25.1777 68.0851 25.3414 67.021 25.3414C64.4835 25.3414 62.4781 24.6457 61.0047 23.2542C59.5518 21.8422 58.8254 19.9289 58.8254 17.5142C58.8254 15.9794 59.1425 14.6186 59.7769 13.4317C60.4113 12.2449 61.2912 11.324 62.4167 10.6692C63.5422 9.99388 64.8211 9.65623 66.2536 9.65623C68.3613 9.65623 70.0291 10.3418 71.2569 11.7128C72.5052 13.0839 73.1293 14.946 73.1293 17.2993V18.435ZM66.3764 12.8485C65.4964 12.8485 64.7905 13.135 64.2584 13.708C63.7468 14.2605 63.4296 15.0688 63.3069 16.1329H69.231C69.1696 15.0483 68.8934 14.2298 68.4023 13.6773C67.9316 13.1248 67.2563 12.8485 66.3764 12.8485Z" fill="white"/>
<path d="M85.2601 9.65623C86.5493 9.65623 87.6953 9.99388 88.698 10.6692C89.7211 11.324 90.509 12.2551 91.0615 13.4624C91.6345 14.6493 91.921 16.0204 91.921 17.5756C91.921 19.1308 91.6345 20.5018 91.0615 21.6887C90.509 22.8551 89.7314 23.7555 88.7287 24.3899C87.726 25.0243 86.5698 25.3414 85.2601 25.3414C84.2369 25.3414 83.3059 25.1368 82.4669 24.7275C81.6483 24.2978 81.014 23.7044 80.5638 22.9472V30.621H75.9288V10.0246H80.5024V12.1425C80.9526 11.3649 81.5972 10.7613 82.4362 10.3315C83.2752 9.88133 84.2165 9.65623 85.2601 9.65623ZM83.9095 21.8115C84.9941 21.8115 85.8331 21.4534 86.4265 20.7372C87.02 20.0005 87.3167 18.9466 87.3167 17.5756C87.3167 16.1841 87.02 15.1097 86.4265 14.3526C85.8331 13.575 84.9941 13.1862 83.9095 13.1862C82.825 13.1862 81.986 13.5647 81.3925 14.3219C80.7991 15.0586 80.5024 16.1227 80.5024 17.5142C80.5024 18.8852 80.7991 19.9493 81.3925 20.7065C81.986 21.4432 82.825 21.8115 83.9095 21.8115Z" fill="white"/>
<path d="M94.7535 3.45581H99.3885V25.0959H94.7535V3.45581Z" fill="white"/>
<path d="M110.181 25.3414C108.585 25.3414 107.183 25.0243 105.976 24.3899C104.768 23.7351 103.837 22.8244 103.182 21.658C102.528 20.4712 102.2 19.0796 102.2 17.4835C102.2 15.8873 102.528 14.5061 103.182 13.3396C103.837 12.1528 104.768 11.2421 105.976 10.6078C107.183 9.97341 108.585 9.65623 110.181 9.65623C111.777 9.65623 113.179 9.97341 114.386 10.6078C115.594 11.2421 116.525 12.1528 117.179 13.3396C117.834 14.5061 118.162 15.8873 118.162 17.4835C118.162 19.0796 117.834 20.4712 117.179 21.658C116.525 22.8244 115.594 23.7351 114.386 24.3899C113.179 25.0243 111.777 25.3414 110.181 25.3414ZM110.181 21.8115C112.432 21.8115 113.557 20.3688 113.557 17.4835C113.557 16.0306 113.261 14.946 112.667 14.2298C112.094 13.5136 111.266 13.1555 110.181 13.1555C107.93 13.1555 106.805 14.5981 106.805 17.4835C106.805 20.3688 107.93 21.8115 110.181 21.8115Z" fill="white"/>
<path d="M135.662 10.0553L126.576 30.621H121.88L124.765 24.2671L118.565 10.0553H123.384L127.19 19.6322L131.119 10.0553H135.662Z" fill="white"/>
<path d="M146.533 9.65623C148.334 9.65623 149.675 10.1883 150.554 11.2524C151.434 12.296 151.874 13.8819 151.874 16.0101V25.0959H147.239V16.225C147.239 15.2018 147.045 14.4549 146.656 13.9842C146.288 13.5136 145.705 13.2783 144.907 13.2783C143.945 13.2783 143.167 13.5852 142.574 14.1991C142.001 14.813 141.714 15.6316 141.714 16.6547V25.0959H137.079V10.0246H141.591V12.1732C142.124 11.3547 142.809 10.7306 143.648 10.3008C144.507 9.8711 145.469 9.65623 146.533 9.65623Z" fill="white"/>
<path fill-rule="evenodd" clip-rule="evenodd" d="M15.2825 -0.000244141C14.958 0.496868 14.4551 0.866901 13.8647 1.01889V10.7901C14.8262 10.9514 15.6591 11.4921 16.2041 12.253L24.1582 8.19479C24.1283 8.04306 24.1126 7.88632 24.1126 7.7259C24.1126 7.16238 24.3059 6.64402 24.6298 6.2335L15.2825 -0.000244141ZM26.5243 10.1372C26.5242 10.1372 26.524 10.1372 26.5239 10.1372C25.7849 10.1372 25.1236 9.80488 24.6813 9.28138L16.7328 13.3368C16.8278 13.6604 16.8787 14.0027 16.8787 14.357C16.8787 14.7417 16.8187 15.1124 16.7074 15.4602L24.6024 19.531C25.0428 18.9511 25.7396 18.5767 26.5239 18.5767C26.524 18.5767 26.5242 18.5767 26.5243 18.5767V10.1372ZM24.7075 22.574C24.337 22.15 24.1126 21.5952 24.1126 20.988C24.1126 20.8723 24.1208 20.7584 24.1365 20.647L16.153 16.5306C15.6077 17.2548 14.7966 17.7676 13.8647 17.9239V27.695C14.5975 27.8837 15.1955 28.4082 15.4848 29.0947L24.7075 22.574ZM11.0573 29.0519C11.3531 28.3864 11.9414 27.8797 12.659 27.695V17.9239C11.7432 17.7702 10.9441 17.2725 10.3992 16.5681L2.25098 20.7253C2.35431 20.9939 2.41096 21.2858 2.41096 21.5908C2.41096 22.0173 2.30026 22.4179 2.10603 22.7655L11.0573 29.0519ZM6.10352e-05 19.1796C0.585261 19.1796 1.12174 19.3882 1.53931 19.735L9.83073 15.5046C9.71016 15.144 9.64484 14.7582 9.64484 14.357C9.64484 13.9752 9.70397 13.6073 9.81358 13.2618L1.916 9.18969C1.47544 9.76563 0.781133 10.1371 6.10352e-05 10.1372V19.1796ZM1.89074 6.22967C2.21646 6.64079 2.41096 7.16062 2.41096 7.7259C2.41096 7.84467 2.40237 7.96138 2.38579 8.07558L10.3655 12.1901C10.9109 11.4623 11.7242 10.9469 12.659 10.7901V1.01889C12.0824 0.870479 11.5893 0.514215 11.2643 0.0347127L1.89074 6.22967Z" fill="white"/>
<path fill-rule="evenodd" clip-rule="evenodd" d="M0 10.1372V19.1796C0.5852 19.1797 1.12168 19.3882 1.53925 19.735L9.83067 15.5046C9.7101 15.1441 9.64478 14.7582 9.64478 14.357C9.64478 13.9752 9.70391 13.6073 9.81352 13.2618L1.91594 9.1897C1.47538 9.76564 0.781072 10.1371 0 10.1372ZM2.10297 22.7708L11.0479 29.0731C11.3406 28.3972 11.9338 27.8817 12.659 27.695V17.9239C11.7432 17.7702 10.944 17.2725 10.3991 16.5681L2.25092 20.7253C2.35425 20.9939 2.41089 21.2858 2.41089 21.5909C2.41089 22.0195 2.29906 22.422 2.10297 22.7708Z" fill="white"/>
<path fill-rule="evenodd" clip-rule="evenodd" d="M15.4764 29.0731L24.7055 22.5706C24.3367 22.1471 24.1134 21.5936 24.1134 20.9879C24.1134 20.8722 24.1216 20.7583 24.1373 20.6469L16.1538 16.5304C15.6085 17.2547 14.7974 17.7674 13.8655 17.9237V27.6949C14.5907 27.8816 15.1838 28.3971 15.4764 29.0731ZM26.5244 18.5766V10.1371C25.7856 10.137 25.1244 9.80468 24.6821 9.28125L16.7336 13.3366C16.8286 13.6603 16.8795 14.0026 16.8795 14.3568C16.8795 14.7415 16.8195 15.1123 16.7082 15.46L24.6032 19.5309C25.0435 18.9511 25.7403 18.5767 26.5244 18.5766Z" fill="white"/>
</g>
</svg>
