<svg fill="none" height="36" viewBox="0 0 36 36" width="36" xmlns="http://www.w3.org/2000/svg"><path d="m35.3077 18.3974c0-1.1766-.0973-2.3595-.305-3.517h-16.6564v6.6652h9.5384c-.3959 2.1496-1.6676 4.0512-3.5299 5.2596v4.3248h5.6906c3.3416-3.0146 5.2623-7.4666 5.2623-12.7326z" fill="#4285f4"/><path d="m18.3464 35.3085c4.7626 0 8.7791-1.5328 11.7055-4.1785l-5.6906-4.3247c-1.5832 1.0557-3.6271 1.6535-6.0085 1.6535-4.6069 0-8.51309-3.0464-9.91464-7.1421h-5.87224v4.4583c2.99776 5.8447 9.10358 9.5335 15.78048 9.5335z" fill="#34a853"/><path d="m8.43185 21.3165c-.73971-2.1496-.73971-4.4773 0-6.627v-4.4583h-5.86576c-2.5046248 4.8908-2.5046248 10.6529 0 15.5436z" fill="#fbbc04"/><path d="m18.3464 7.54123c2.5176-.03816 4.9508.89039 6.7741 2.59487l5.0417-4.94168c-3.1924-2.93828-7.4295-4.553703-11.8158-4.502824-6.6769 0-12.78272 3.688754-15.78048 9.539904l5.86575 4.4583c1.39506-4.1022 5.30773-7.14857 9.91473-7.14857z" fill="#ea4335"/></svg>