<svg width="84" height="84" viewBox="0 0 84 84" fill="none" xmlns="http://www.w3.org/2000/svg">
<path d="M56.9029 74.5154H27.0967V77.2251H56.9029V74.5154Z" fill="#B69EFF"/>
<path d="M49 50H35L27.5 73H56L49 50Z" fill="#B69EFF"/>
<path d="M51.9279 55.5478H52.8384V52.8381H51.6056C51.5339 51.9439 51.4835 51.0428 51.4835 50.1284H52.8384V47.4187H51.4835V44.709H52.8384C56.5738 44.709 59.6126 41.6701 59.6126 37.9347C59.6126 34.7806 57.4449 32.1224 54.5213 31.3719L57.2839 20.3219H47.4195V13.5477H52.8389V4.06456H47.4195V0H36.581V4.06456H31.1616V13.5482H36.581V20.3225H26.7161L29.4787 31.3724C26.555 32.123 24.3873 34.7812 24.3873 37.9353C24.3873 41.6707 27.4262 44.7096 31.1616 44.7096H32.5164V47.4193H31.1616V50.129H32.5164C32.5164 51.0423 32.4649 51.9445 32.3933 52.8387H31.1616V55.5484H32.0681C30.6116 64.902 26.0051 72.3523 25.951 72.4391L25.6856 72.8619L27.2774 84H56.7231L58.3136 72.8579L58.0467 72.4351C57.9923 72.3478 53.3804 64.9382 51.9279 55.5478ZM33.871 10.8385V6.77426H39.2904V2.7097H44.7098V6.77426H50.1292V10.8388H44.7098V20.3225H39.2904V10.8385H33.871ZM31.1613 41.9996C28.9205 41.9996 27.0967 40.1758 27.0967 37.935C27.0967 35.6942 28.9205 33.8705 31.1613 33.8705H32.8968H46.0644V31.1608H32.2194L30.1871 23.0319H36.5804H47.419H53.8123L51.1026 33.8705H52.8381C55.0789 33.8705 56.9027 35.6942 56.9027 37.935C56.9027 40.1758 55.0789 41.9996 52.8381 41.9996H51.4832H32.5156H31.1613ZM35.2259 44.7093H48.7741V47.419H35.2259V44.7093ZM35.2259 50.1284H48.7741C48.7741 51.0443 48.8202 51.9453 48.8865 52.8381H35.1121C35.1784 51.9453 35.2259 51.0445 35.2259 50.1284ZM54.3736 81.2894H29.6264L28.659 74.5152H47.4193V71.8055H29.4189C31.0205 68.776 33.7868 62.7267 34.8165 55.5475H49.179C50.451 64.473 54.4086 71.6294 55.4923 73.4502L54.3736 81.2894Z" fill="#333333"/>
</svg>
