<svg width="15" height="15" viewBox="0 0 15 15" fill="none" xmlns="http://www.w3.org/2000/svg">
<path d="M7.40052 0C5.43243 0 5.19242 0 4.42439 0.0480022C3.65635 0.0960044 3.12833 0.192009 2.69631 0.384017C2.21629 0.576026 1.83227 0.816037 1.40025 1.20005C1.01623 1.63207 0.776221 2.01609 0.584213 2.49611C0.392204 2.92813 0.2962 3.45616 0.248197 4.22419C0.200195 4.99223 0.200195 5.23224 0.200195 7.20033C0.200195 9.16842 0.200195 9.40843 0.248197 10.1765C0.2962 10.9445 0.392204 11.4725 0.584213 11.9045C0.776221 12.3846 1.01623 12.7686 1.40025 13.2006C1.83227 13.5846 2.21629 13.8246 2.69631 14.0166C3.12833 14.2086 3.65635 14.3046 4.42439 14.3527C5.19242 14.4007 5.43243 14.4007 7.40052 14.4007C9.36861 14.4007 9.60862 14.4007 10.3767 14.3527C11.1447 14.3046 11.6727 14.2086 12.1047 14.0166C12.5848 13.8246 12.9688 13.5846 13.4008 13.2006C13.7848 12.7686 14.0248 12.3846 14.2168 11.9045C14.4088 11.4725 14.5048 10.9445 14.5528 10.1765C14.6008 9.40843 14.6008 9.16842 14.6008 7.20033C14.6008 5.23224 14.6008 4.99223 14.5528 4.22419C14.5048 3.45616 14.4088 2.92813 14.2168 2.49611C14.0248 2.01609 13.7848 1.63207 13.4008 1.20005C12.9688 0.816037 12.5848 0.576026 12.1047 0.384017C11.6727 0.192009 11.1447 0.0960044 10.3767 0.0480022C9.60862 0 9.36861 0 7.40052 0ZM7.40052 1.29606C9.32061 1.29606 9.56062 1.29606 10.3287 1.34406C11.0007 1.39206 11.3847 1.48807 11.6247 1.58407C11.9607 1.72808 12.2007 1.87208 12.4888 2.1121C12.7288 2.40011 12.8728 2.64012 13.0168 2.97614C13.1128 3.21615 13.2088 3.60016 13.2568 4.27219C13.3048 5.04023 13.3048 5.28024 13.3048 7.20033C13.3048 9.12041 13.3048 9.36042 13.2568 10.1285C13.2088 10.8005 13.1128 11.1845 13.0168 11.4245C12.8728 11.7605 12.7288 12.0005 12.4888 12.2886C12.2007 12.5286 11.9607 12.6726 11.6247 12.8166C11.3847 12.9126 11.0007 13.0086 10.3287 13.0566C9.56062 13.1046 9.32061 13.1046 7.40052 13.1046C5.48043 13.1046 5.24042 13.1046 4.47239 13.0566C3.80036 13.0086 3.41634 12.9126 3.17633 12.8166C2.84032 12.6726 2.6003 12.5286 2.31229 12.2886C2.07228 12.0005 1.92827 11.7605 1.78427 11.4245C1.68826 11.1845 1.59226 10.8005 1.54426 10.1285C1.49625 9.36042 1.49625 9.12041 1.49625 7.20033C1.49625 5.28024 1.49625 5.04023 1.54426 4.27219C1.59226 3.60016 1.68826 3.21615 1.78427 2.97614C1.92827 2.64012 2.07228 2.40011 2.31229 2.1121C2.6003 1.87208 2.84032 1.72808 3.17633 1.58407C3.41634 1.48807 3.80036 1.39206 4.47239 1.34406C5.24042 1.29606 5.48043 1.29606 7.40052 1.29606Z" fill="white"/>
<path d="M7.40088 9.60042C6.05682 9.60042 5.00077 8.54437 5.00077 7.20031C5.00077 5.85625 6.05682 4.8002 7.40088 4.8002C8.74494 4.8002 9.80099 5.85625 9.80099 7.20031C9.80099 8.54437 8.74494 9.60042 7.40088 9.60042ZM7.40088 3.50414C5.33679 3.50414 3.70471 5.13621 3.70471 7.20031C3.70471 9.2164 5.33679 10.8965 7.40088 10.8965C9.41697 10.8965 11.097 9.2164 11.097 7.20031C11.097 5.13621 9.41697 3.50414 7.40088 3.50414ZM12.1051 3.36013C12.1051 3.84015 11.7211 4.22417 11.2411 4.22417C10.761 4.22417 10.377 3.84015 10.377 3.36013C10.377 2.88011 10.761 2.49609 11.2411 2.49609C11.7211 2.49609 12.1051 2.88011 12.1051 3.36013Z" fill="white"/>
</svg>
