<svg width="116" height="116" viewBox="0 0 116 116" fill="none" xmlns="http://www.w3.org/2000/svg">
<circle cx="58" cy="58" r="58" fill="#F2EEE8"/>
<g clip-path="url(#clip0_404_6)">
<path d="M89.2401 57.1314H81.2092V48.1036L65.3501 47.9972L59.1242 45.4183V42.0734H57.1164V45.4183L50.8905 47.9972L35.0314 48.1036V57.1314H27.0005V69.1778H45.07V57.1314H37.0391V50.0973L50.8844 50.0049L57.1164 52.7655V57.1314H49.0855V69.1778H67.155V57.1314H59.1242V52.7655L65.3562 50.0049L79.2014 50.0973V57.1314H71.1706V69.1778H79.2014V72.1895H57.1164V77.2089H53.1011C50.8865 77.2089 49.0855 79.0099 49.0855 81.2244C49.0855 83.439 50.8865 85.24 53.1011 85.24H63.1397C65.3543 85.24 67.1552 83.439 67.1552 81.2244C67.1552 79.0099 65.3543 77.2089 63.1397 77.2089H59.1242V74.1972H81.2092V69.1778H89.2401V57.1314ZM43.0622 67.1701H29.0083V59.1392H43.0622V67.1701ZM65.1473 67.1701H51.0931V59.1392H65.1473V67.1701ZM58.1203 51.0139L53.642 49.0301L58.1203 47.1761L62.5985 49.0312L58.1203 51.0139ZM65.1473 81.224C65.1473 82.3312 64.2469 83.2318 63.1395 83.2318H53.1011C51.9939 83.2318 51.0933 82.3314 51.0933 81.224C51.0933 80.1168 51.9937 79.2162 53.1011 79.2162H63.1397C64.2469 79.2165 65.1473 80.1168 65.1473 81.224ZM87.2323 67.1701H73.1781V59.1392H87.2323V67.1701Z" fill="#333333"/>
<path d="M63.1396 43.0773H53.101V37.2951C51.2058 35.7733 50.0894 33.4704 50.0894 31.0311C50.0894 26.6028 53.6921 23 58.1202 23C62.5483 23 66.1511 26.6028 66.1511 31.0309C66.1511 33.4712 65.0348 35.7741 63.1394 37.2949L63.1396 43.0773Z" fill="#F9BA48"/>
<path d="M64.1433 38.058H59.1239V33.8578C60.2894 33.4423 61.1316 32.3379 61.1316 31.0308C61.1316 29.3705 59.7803 28.0192 58.12 28.0192C56.4596 28.0192 55.1083 29.3705 55.1083 31.0308C55.1083 32.3379 55.9505 33.4421 57.1161 33.8578V38.058H52.0967V40.0658H64.1431L64.1433 38.058ZM58.1202 30.0269C58.6734 30.0269 59.1241 30.4776 59.1241 31.0308C59.1241 31.584 58.6734 32.0347 58.1202 32.0347C57.567 32.0347 57.1163 31.584 57.1163 31.0308C57.1163 30.4776 57.567 30.0269 58.1202 30.0269Z" fill="#333333"/>
<path d="M47.078 30.027H42.0586V32.0347H47.078V30.027Z" fill="#333333"/>
<path d="M47.5321 34.3288L42.8955 36.2501L43.6641 38.1049L48.3006 36.1836L47.5321 34.3288Z" fill="#333333"/>
<path d="M68.7064 34.3285L67.938 36.1835L72.5756 38.1045L73.344 36.2495L68.7064 34.3285Z" fill="#333333"/>
<path d="M74.182 30.027H69.1626V32.0347H74.182V30.027Z" fill="#333333"/>
<path d="M72.5731 23.9575L67.9365 25.8788L68.7051 27.7336L73.3416 25.8123L72.5731 23.9575Z" fill="#333333"/>
<path d="M43.6653 23.9561L42.897 25.811L47.5346 27.732L48.303 25.8771L43.6653 23.9561Z" fill="#333333"/>
</g>
<defs>
<clipPath id="clip0_404_6">
<rect width="62.24" height="62.24" fill="white" transform="translate(27 23)"/>
</clipPath>
</defs>
</svg>
