<svg width="117" height="96" viewBox="0 0 117 96" fill="none" xmlns="http://www.w3.org/2000/svg">
<path d="M21.1853 67.1669H25.4207V63.4354H21.1853C11.9276 63.4354 4.39376 55.9035 4.39376 46.6435C4.39376 37.9733 10.8923 30.7901 19.508 29.9355L21.1889 29.7696L21.1813 27.8925C21.1849 14.6119 32.0661 3.73109 45.4398 3.73109C54.75 3.73109 63.3489 9.18843 67.3475 17.6345L68.2785 19.5992L70.0788 18.3828C71.6199 17.3416 73.4222 16.7915 75.2917 16.7915C78.9428 16.7915 82.2771 18.9464 83.7864 22.2823L84.4638 23.7805L86.0348 23.2973C87.9939 22.6946 90.0274 22.3886 92.0836 22.3886C103.4 22.3886 112.607 31.5961 112.607 42.912C112.607 54.2278 103.399 63.4354 92.0836 63.4354H91.5797V67.1669H92.0836C105.457 67.1669 116.338 56.286 116.338 42.9124C116.338 29.5387 105.457 18.6575 92.0836 18.6575C90.1751 18.6575 88.2813 18.8816 86.4341 19.3218C84.0813 15.4729 79.8646 13.0604 75.2917 13.0604C73.3776 13.0604 71.5117 13.4728 69.8025 14.2656C64.8734 5.53973 55.5166 0 45.4398 0C30.5214 0 18.2932 11.7298 17.4948 26.4524C7.78931 28.197 0.661865 36.6041 0.661865 46.6435C0.661865 57.9593 9.8694 67.1669 21.1853 67.1669Z" fill="#3E71EF"/>
<path d="M58.5005 95.1534C38.9223 95.1534 23.0511 79.2822 23.0511 59.704C23.0511 40.1259 38.9223 24.2546 58.5005 24.2546C78.0786 24.2546 93.9498 40.1259 93.9498 59.704C93.9498 79.2822 78.0786 95.1534 58.5005 95.1534Z" fill="#3E71EF"/>
<path d="M55.3728 61.5632C56.0443 62.4609 56.901 63.2037 57.8848 63.7412C58.8686 64.2787 59.9566 64.5983 61.0748 64.6784C62.193 64.7585 63.3153 64.5971 64.3657 64.2053C65.4161 63.8135 66.3699 63.2004 67.1625 62.4075L71.8533 57.7167C73.2774 56.2422 74.0654 54.2673 74.0476 52.2174C74.0298 50.1676 73.2076 48.2067 71.7581 46.7571C70.3085 45.3076 68.3477 44.4854 66.2978 44.4676C64.2479 44.4498 62.2731 45.2378 60.7985 46.6619L58.1091 49.3357" stroke="white" stroke-width="3.12723" stroke-linecap="round" stroke-linejoin="round"/>
<path d="M61.6273 58.4358C60.9558 57.538 60.0991 56.7952 59.1153 56.2577C58.1314 55.7202 57.0435 55.4006 55.9253 55.3205C54.8071 55.2404 53.6848 55.4018 52.6344 55.7936C51.584 56.1854 50.6302 56.7985 49.8376 57.5914L45.1468 62.2822C43.7226 63.7568 42.9346 65.7316 42.9524 67.7815C42.9703 69.8314 43.7925 71.7922 45.242 73.2418C46.6915 74.6913 48.6524 75.5135 50.7023 75.5313C52.7522 75.5492 54.727 74.7611 56.2015 73.337L58.8753 70.6632" stroke="white" stroke-width="3.12723" stroke-linecap="round" stroke-linejoin="round"/>
</svg>
