<svg width="116" height="116" viewBox="0 0 116 116" fill="none" xmlns="http://www.w3.org/2000/svg">
<circle cx="58" cy="58" r="58" fill="#F2EEE8"/>
<g clip-path="url(#clip0_404_5)">
<path d="M63.6454 41.5806H52.3552V35.0775C50.2237 33.3659 48.968 30.7758 48.968 28.0324C48.968 23.052 53.02 19 58.0002 19C62.9804 19 67.0324 23.052 67.0324 28.0322C67.0324 30.7768 65.7769 33.3668 63.6452 35.0772L63.6454 41.5806Z" fill="#FFD486"/>
<circle cx="58" cy="57.3735" r="11.3855" fill="white"/>
<path d="M64.7742 35.9355H59.1289V31.2116C60.4399 30.7443 61.3871 29.5022 61.3871 28.0322C61.3871 26.1648 59.8673 24.645 57.9999 24.645C56.1325 24.645 54.6127 26.1648 54.6127 28.0322C54.6127 29.5022 55.5599 30.7441 56.8708 31.2116V35.9355H51.2256V38.1936H64.774L64.7742 35.9355ZM58.0001 26.9031C58.6235 26.9031 59.1292 27.41 59.1292 28.0322C59.1292 28.6543 58.6235 29.1612 58.0001 29.1612C57.3768 29.1612 56.8711 28.6543 56.8711 28.0322C56.8708 27.41 57.3768 26.9031 58.0001 26.9031Z" fill="#333333"/>
<path d="M67.9277 67.7278L66.7038 69.6269C70.4442 72.0384 72.6774 76.1245 72.6774 80.5558V86.7417H58.6482L66.8788 72.6333L64.9268 71.4952L58.0002 83.3725L51.0725 71.4955L49.1205 72.6335L57.3522 86.7419H43.3228V80.5561C43.3228 76.1236 45.556 72.0375 49.2964 69.6259L48.0725 67.7268C43.6839 70.5584 41.0647 75.3535 41.0647 80.5561V89H74.9355V80.5561C74.9358 75.3532 72.3163 70.5582 67.9277 67.7278Z" fill="#333333"/>
<path d="M45.4758 57.432C45.4758 64.3054 51.0668 69.8964 57.9402 69.8964C64.8136 69.8964 70.4046 64.3054 70.4046 57.432C70.4046 50.5596 64.8136 44.9677 57.9402 44.9677C51.0668 44.9677 45.4758 50.5598 45.4758 57.432ZM68.1467 57.432C68.1467 63.059 63.5674 67.6385 57.9402 67.6385C52.313 67.6385 47.7337 63.0593 47.7337 57.432C47.7337 51.8038 52.313 47.2255 57.9402 47.2255C63.5674 47.2255 68.1467 51.8038 68.1467 57.432Z" fill="#333333"/>
<path d="M42.6882 61.5914C41.7545 61.8579 40.8083 61.9933 39.8769 61.9933C34.2499 61.9933 29.6704 57.414 29.6704 51.7868C29.6704 46.1586 34.2497 41.5802 39.8769 41.5802C42.949 41.5802 45.828 42.9464 47.7779 45.3297L49.5267 43.8993C47.1456 40.9908 43.6287 39.3221 39.8758 39.3221C33.0023 39.3221 27.4114 44.9143 27.4114 51.7865C27.4114 58.6599 33.0023 64.2509 39.8758 64.2509C41.0171 64.2509 42.1711 64.0861 43.3068 63.762L42.6882 61.5914Z" fill="#333333"/>
<path d="M25.2583 74.9106C25.2583 70.478 27.4916 66.3919 31.232 63.9804L30.0081 62.0813C25.6197 64.9132 23.0002 69.708 23.0002 74.9106V83.3545H37.6777V81.0964H25.2583V74.9106Z" fill="#333333"/>
<path d="M88.4691 51.7871C88.4691 44.9147 82.8782 39.3228 76.0048 39.3228C72.253 39.3228 68.7361 40.9914 66.355 43.8999L68.1038 45.3303C70.0537 42.947 72.9337 41.5809 76.0048 41.5809C81.6318 41.5809 86.2113 46.1592 86.2113 51.7874C86.2113 57.4144 81.632 61.9939 76.0048 61.9939C75.0732 61.9939 74.1272 61.8585 73.1935 61.592L72.5714 63.7619C73.7071 64.087 74.8622 64.2529 76.0048 64.2529C82.8782 64.2515 88.4691 58.6605 88.4691 51.7871Z" fill="#333333"/>
<path d="M85.9922 62.0826L84.7683 63.9818C88.5088 66.3933 90.742 70.4794 90.742 74.9107V81.0966H79.4517H77.1936V83.3547H93.0001V74.9107C93.0001 69.7079 90.3804 64.9131 85.9922 62.0826Z" fill="#333333"/>
</g>
<defs>
<clipPath id="clip0_404_5">
<rect width="70" height="70" fill="white" transform="translate(23 19)"/>
</clipPath>
</defs>
</svg>
