<svg width="71" height="71" viewBox="0 0 71 71" fill="none" xmlns="http://www.w3.org/2000/svg">
<g clip-path="url(#clip0_284_1539)">
<path d="M4.58075 70.4275V56.6855L11.4516 47.5243L18.3224 42.9436L25.1935 46.3792L32.0644 54.3952H38.9354L45.8063 39.5083L52.6774 31.492L59.5482 23.476L66.4191 17.7501V70.4275H4.58075Z" fill="#6AEC94"/>
<path d="M66.419 6.29858C63.8928 6.29858 61.8383 8.35303 61.8383 10.8793C61.8383 11.76 62.0995 12.5742 62.5323 13.2738L36.5833 43.5473C35.9202 43.174 35.1678 42.9436 34.3547 42.9436C33.0825 42.9436 31.9316 43.4669 31.1002 44.3065L22.3604 38.1891C22.6958 37.5523 22.9031 36.8399 22.9031 36.0728C22.9031 33.5465 20.8487 31.4921 18.3224 31.4921C15.7961 31.4921 13.7419 33.5465 13.7419 36.0728C13.7419 36.9203 13.9882 37.7035 14.3912 38.3848L6.89273 45.8833C6.21144 45.4803 5.42818 45.234 4.58072 45.234C2.05445 45.234 0 47.2885 0 49.8147C0 52.341 2.05445 54.3955 4.58072 54.3955C7.107 54.3955 9.16144 52.341 9.16144 49.8147C9.16144 48.9673 8.91519 48.184 8.51214 47.5027L16.0106 40.0042C16.6919 40.4073 17.4752 40.6535 18.3226 40.6535C19.2444 40.6535 20.0989 40.3753 20.8179 39.9047L29.9596 46.3039C29.8509 46.6957 29.7742 47.0999 29.7742 47.5246C29.7742 50.0509 31.8287 52.1053 34.3549 52.1053C36.8812 52.1053 38.9357 50.0509 38.9357 47.5246C38.9357 46.644 38.6745 45.8297 38.2416 45.1301L64.1907 14.8564C64.8537 15.2296 65.6062 15.46 66.4193 15.46C68.9455 15.46 71 13.4056 71 10.8793C71 8.35303 68.9453 6.29858 66.419 6.29858ZM4.58072 52.1051C3.31771 52.1051 2.29036 51.078 2.29036 49.8147C2.29036 48.5515 3.31746 47.5244 4.58072 47.5244C5.84398 47.5244 6.87108 48.5515 6.87108 49.8147C6.87108 51.078 5.84374 52.1051 4.58072 52.1051ZM18.3224 38.3632C17.0594 38.3632 16.032 37.3361 16.032 36.0728C16.032 34.8098 17.0592 33.7824 18.3224 33.7824C19.5857 33.7824 20.6128 34.8095 20.6128 36.0728C20.6128 37.3358 19.5857 38.3632 18.3224 38.3632ZM34.3547 49.8147C33.0917 49.8147 32.0643 48.7876 32.0643 47.5244C32.0643 46.2613 33.0914 45.234 34.3547 45.234C35.6177 45.234 36.6451 46.2611 36.6451 47.5244C36.6451 48.7874 35.6177 49.8147 34.3547 49.8147ZM66.419 13.1697C65.156 13.1697 64.1287 12.1426 64.1287 10.8793C64.1287 9.61605 65.1558 8.58895 66.419 8.58895C67.6821 8.58895 68.7094 9.61605 68.7094 10.8793C68.7094 12.1426 67.6823 13.1697 66.419 13.1697Z" fill="#333333"/>
<path d="M5.72591 56.6855H3.43555V70.4275H5.72591V56.6855Z" fill="#333333"/>
<path d="M12.5968 47.5243H10.3064V70.4274H12.5968V47.5243Z" fill="#333333"/>
<path d="M19.4679 42.9436H17.1775V70.4274H19.4679V42.9436Z" fill="#333333"/>
<path d="M26.3387 46.3792H24.0483V70.4275H26.3387V46.3792Z" fill="#333333"/>
<path d="M33.2095 54.3951H30.9191V70.4274H33.2095V54.3951Z" fill="#333333"/>
<path d="M40.0806 54.3951H37.7902V70.4274H40.0806V54.3951Z" fill="#333333"/>
<path d="M46.9514 39.5083H44.6611V70.4275H46.9514V39.5083Z" fill="#333333"/>
<path d="M53.8225 31.4921H51.5322V70.4275H53.8225V31.4921Z" fill="#333333"/>
<path d="M60.6933 23.4761H58.403V70.4275H60.6933V23.4761Z" fill="#333333"/>
<path d="M67.5642 17.7501H65.2738V70.4275H67.5642V17.7501Z" fill="#333333"/>
<path d="M14.8871 18.8953H11.4516V2.86324H14.8871V0.572876H5.72589V2.86324H9.16119V18.8953H5.72589V21.1856H14.8871V18.8953Z" fill="#333333"/>
<path d="M20.6127 12.0244H25.1935C28.3508 12.0244 30.9194 9.45584 30.9194 6.29853C30.9194 3.14123 28.3508 0.572632 25.1935 0.572632H18.3224V21.1854H20.6127V12.0244ZM20.6127 2.86323H25.1935C27.0875 2.86323 28.629 4.40473 28.629 6.29877C28.629 8.19282 27.0875 9.73432 25.1935 9.73432H20.6127V2.86323Z" fill="#333333"/>
<path d="M41.2258 21.1856C45.0151 21.1856 48.0966 18.1041 48.0966 14.3148V7.44372C48.0966 3.65443 45.0151 0.572876 41.2258 0.572876C37.4365 0.572876 34.3549 3.65443 34.3549 7.44372V14.3146C34.3547 18.1041 37.4362 21.1856 41.2258 21.1856ZM36.645 7.44372C36.645 4.91744 38.6995 2.863 41.2258 2.863C43.752 2.863 45.8065 4.91744 45.8065 7.44372V14.3146C45.8065 16.8408 43.752 18.8953 41.2258 18.8953C38.6995 18.8953 36.645 16.8408 36.645 14.3146V7.44372Z" fill="#333333"/>
</g>
<defs>
<clipPath id="clip0_284_1539">
<rect width="71" height="71" fill="white"/>
</clipPath>
</defs>
</svg>
