<svg width="969" height="208" viewBox="0 0 969 208" fill="none" xmlns="http://www.w3.org/2000/svg">
<path d="M19.5 25.9999C66.5 254 360.599 234.78 478.5 96.9999C650.5 -104 798 169 951.116 45" stroke="black" stroke-width="3" stroke-linecap="round" stroke-linejoin="round"/>
<circle cx="18" cy="20" r="18" fill="black"/>
<path d="M22.2431 23V25H14.8831V23H17.3151V16.488L15.3951 17.608L14.4511 15.816L18.0351 13.72H19.8111V23H22.2431Z" fill="white"/>
<circle cx="284" cy="190" r="18" fill="black"/>
<path d="M288.011 193V195H280.251V193.16L284.011 189.176C284.801 188.344 285.195 187.576 285.195 186.872C285.195 185.976 284.683 185.528 283.659 185.528C283.19 185.528 282.699 185.624 282.187 185.816C281.675 185.997 281.174 186.264 280.683 186.616L279.899 184.84C280.347 184.456 280.923 184.152 281.627 183.928C282.331 183.693 283.051 183.576 283.787 183.576C284.961 183.576 285.894 183.859 286.587 184.424C287.291 184.989 287.643 185.747 287.643 186.696C287.643 187.347 287.505 187.949 287.227 188.504C286.961 189.059 286.507 189.677 285.867 190.36L283.355 193H288.011Z" fill="white"/>
<circle cx="619" cy="18" r="18" fill="black"/>
<path d="M620.875 17.192C621.536 17.384 622.043 17.72 622.395 18.2C622.758 18.6693 622.939 19.2453 622.939 19.928C622.939 20.92 622.56 21.704 621.803 22.28C621.046 22.8453 620.022 23.128 618.731 23.128C617.952 23.128 617.206 23.016 616.491 22.792C615.776 22.568 615.195 22.2587 614.747 21.864L615.531 20.088C616.555 20.8133 617.584 21.176 618.619 21.176C619.302 21.176 619.798 21.0587 620.107 20.824C620.416 20.5787 620.571 20.2 620.571 19.688C620.571 19.1867 620.416 18.824 620.107 18.6C619.798 18.376 619.302 18.264 618.619 18.264H617.003V16.328H618.347C618.998 16.328 619.478 16.216 619.787 15.992C620.107 15.768 620.267 15.4213 620.267 14.952C620.267 14.4933 620.128 14.1413 619.851 13.896C619.574 13.6507 619.174 13.528 618.651 13.528C618.182 13.528 617.691 13.624 617.179 13.816C616.667 13.9973 616.171 14.264 615.691 14.616L614.907 12.84C615.355 12.456 615.931 12.152 616.635 11.928C617.35 11.6933 618.08 11.576 618.827 11.576C619.595 11.576 620.267 11.704 620.843 11.96C621.419 12.2053 621.862 12.5573 622.171 13.016C622.491 13.4747 622.651 14.008 622.651 14.616C622.651 15.224 622.491 15.7573 622.171 16.216C621.862 16.664 621.43 16.9893 620.875 17.192Z" fill="white"/>
<circle cx="951" cy="41" r="18" fill="black"/>
<path d="M955.467 43.936H953.931V46H951.499V43.936H946.779V42.096L951.931 34.72H953.931V42.032H955.467V43.936ZM951.499 42.032V38.512L949.051 42.032H951.499Z" fill="white"/>
</svg>
