<svg width="152" height="31" viewBox="0 0 152 31" fill="none" xmlns="http://www.w3.org/2000/svg">
<path d="M36.5193 3.45586H44.9298C47.2831 3.45586 49.309 3.88559 51.0075 4.74506C52.7059 5.60452 54.0053 6.84256 54.9057 8.45917C55.8061 10.0758 56.2563 12.0096 56.2563 14.2606C56.2563 16.5115 55.8061 18.4556 54.9057 20.0926C54.0258 21.7092 52.7366 22.9473 51.0382 23.8067C49.3397 24.6662 47.3036 25.0959 44.9298 25.0959H36.5193V3.45586ZM44.5922 21.2283C49.1964 21.2283 51.4986 18.9058 51.4986 14.2606C51.4986 9.63582 49.1964 7.32345 44.5922 7.32345H41.3078V21.2283H44.5922Z" fill="white"/>
<path d="M73.1293 18.4351H63.3069C63.4501 19.6424 63.8389 20.5224 64.4733 21.0749C65.1281 21.6069 66.049 21.8729 67.2358 21.8729C68.0134 21.8729 68.7808 21.7502 69.538 21.5046C70.3156 21.2386 71.0216 20.8702 71.6559 20.3996L72.8837 23.4998C72.1471 24.0728 71.2467 24.523 70.1826 24.8504C69.1389 25.1778 68.0851 25.3415 67.021 25.3415C64.4835 25.3415 62.4781 24.6457 61.0047 23.2542C59.5518 21.8423 58.8254 19.9289 58.8254 17.5142C58.8254 15.9795 59.1425 14.6187 59.7769 13.4318C60.4113 12.2449 61.2912 11.324 62.4167 10.6692C63.5422 9.99393 64.8211 9.65628 66.2536 9.65628C68.3613 9.65628 70.0291 10.3418 71.2569 11.7129C72.5052 13.0839 73.1293 14.9461 73.1293 17.2994V18.4351ZM66.3764 12.8486C65.4964 12.8486 64.7905 13.1351 64.2584 13.708C63.7468 14.2606 63.4296 15.0689 63.3069 16.133H69.231C69.1696 15.0484 68.8934 14.2299 68.4023 13.6773C67.9316 13.1248 67.2563 12.8486 66.3764 12.8486Z" fill="white"/>
<path d="M85.2601 9.65628C86.5493 9.65628 87.6953 9.99393 88.698 10.6692C89.7211 11.324 90.509 12.2551 91.0615 13.4625C91.6345 14.6494 91.921 16.0204 91.921 17.5756C91.921 19.1308 91.6345 20.5019 91.0615 21.6888C90.509 22.8552 89.7314 23.7556 88.7287 24.3899C87.726 25.0243 86.5698 25.3415 85.2601 25.3415C84.2369 25.3415 83.3059 25.1369 82.4669 24.7276C81.6483 24.2979 81.014 23.7044 80.5638 22.9473V30.6211H75.9288V10.0246H80.5024V12.1426C80.9526 11.365 81.5972 10.7613 82.4362 10.3316C83.2752 9.88138 84.2165 9.65628 85.2601 9.65628ZM83.9095 21.8116C84.9941 21.8116 85.8331 21.4534 86.4265 20.7372C87.02 20.0005 87.3167 18.9467 87.3167 17.5756C87.3167 16.1841 87.02 15.1098 86.4265 14.3526C85.8331 13.575 84.9941 13.1862 83.9095 13.1862C82.825 13.1862 81.986 13.5648 81.3925 14.3219C80.7991 15.0586 80.5024 16.1227 80.5024 17.5142C80.5024 18.8853 80.7991 19.9494 81.3925 20.7065C81.986 21.4432 82.825 21.8116 83.9095 21.8116Z" fill="white"/>
<path d="M94.7535 3.45586H99.3885V25.0959H94.7535V3.45586Z" fill="white"/>
<path d="M110.181 25.3415C108.585 25.3415 107.183 25.0243 105.976 24.3899C104.768 23.7351 103.837 22.8245 103.182 21.6581C102.528 20.4712 102.2 19.0797 102.2 17.4835C102.2 15.8874 102.528 14.5061 103.182 13.3397C103.837 12.1528 104.768 11.2422 105.976 10.6078C107.183 9.97346 108.585 9.65628 110.181 9.65628C111.777 9.65628 113.179 9.97346 114.386 10.6078C115.594 11.2422 116.525 12.1528 117.179 13.3397C117.834 14.5061 118.162 15.8874 118.162 17.4835C118.162 19.0797 117.834 20.4712 117.179 21.6581C116.525 22.8245 115.594 23.7351 114.386 24.3899C113.179 25.0243 111.777 25.3415 110.181 25.3415ZM110.181 21.8116C112.432 21.8116 113.557 20.3689 113.557 17.4835C113.557 16.0306 113.261 14.9461 112.667 14.2299C112.094 13.5136 111.266 13.1555 110.181 13.1555C107.93 13.1555 106.805 14.5982 106.805 17.4835C106.805 20.3689 107.93 21.8116 110.181 21.8116Z" fill="white"/>
<path d="M135.662 10.0553L126.576 30.6211H121.88L124.765 24.2672L118.565 10.0553H123.384L127.19 19.6322L131.119 10.0553H135.662Z" fill="white"/>
<path d="M146.533 9.65628C148.334 9.65628 149.675 10.1883 150.554 11.2524C151.434 12.2961 151.874 13.882 151.874 16.0102V25.0959H147.239V16.225C147.239 15.2019 147.045 14.455 146.656 13.9843C146.288 13.5136 145.705 13.2783 144.907 13.2783C143.945 13.2783 143.167 13.5853 142.574 14.1992C142.001 14.8131 141.714 15.6316 141.714 16.6548V25.0959H137.079V10.0246H141.591V12.1733C142.124 11.3547 142.809 10.7306 143.648 10.3009C144.507 9.87115 145.469 9.65628 146.533 9.65628Z" fill="white"/>
<path fill-rule="evenodd" clip-rule="evenodd" d="M15.2825 -0.000164032C14.958 0.496948 14.4551 0.866981 13.8647 1.01897V10.7901C14.8262 10.9514 15.6591 11.4922 16.2041 12.253L24.1582 8.19487C24.1283 8.04314 24.1126 7.8864 24.1126 7.72598C24.1126 7.16246 24.3059 6.6441 24.6298 6.23358L15.2825 -0.000164032ZM26.5243 10.1373C26.5242 10.1373 26.524 10.1373 26.5239 10.1373C25.7849 10.1373 25.1236 9.80496 24.6813 9.28146L16.7328 13.3368C16.8278 13.6605 16.8787 14.0028 16.8787 14.357C16.8787 14.7418 16.8187 15.1125 16.7074 15.4603L24.6024 19.5311C25.0428 18.9512 25.7396 18.5768 26.5239 18.5768C26.524 18.5768 26.5242 18.5768 26.5243 18.5768V10.1373ZM24.7075 22.574C24.337 22.1501 24.1126 21.5953 24.1126 20.9881C24.1126 20.8724 24.1208 20.7585 24.1365 20.6471L16.153 16.5307C15.6077 17.2549 14.7966 17.7676 13.8647 17.9239V27.6951C14.5975 27.8838 15.1955 28.4083 15.4848 29.0948L24.7075 22.574ZM11.0573 29.052C11.3531 28.3865 11.9414 27.8798 12.659 27.6951V17.9239C11.7432 17.7703 10.9441 17.2726 10.3992 16.5682L2.25098 20.7254C2.35431 20.994 2.41096 21.2858 2.41096 21.5909C2.41096 22.0174 2.30026 22.418 2.10603 22.7655L11.0573 29.052ZM6.10352e-05 19.1796C0.585261 19.1797 1.12174 19.3883 1.53931 19.7351L9.83073 15.5047C9.71016 15.1441 9.64484 14.7582 9.64484 14.357C9.64484 13.9753 9.70397 13.6073 9.81358 13.2619L1.916 9.18977C1.47544 9.76571 0.781133 10.1371 6.10352e-05 10.1373V19.1796ZM1.89074 6.22975C2.21646 6.64087 2.41096 7.1607 2.41096 7.72598C2.41096 7.84475 2.40237 7.96146 2.38579 8.07566L10.3655 12.1902C10.9109 11.4624 11.7242 10.947 12.659 10.7901V1.01897C12.0824 0.870559 11.5893 0.514295 11.2643 0.0347928L1.89074 6.22975Z" fill="white"/>
<path fill-rule="evenodd" clip-rule="evenodd" d="M0 10.1372V19.1796C0.5852 19.1797 1.12168 19.3882 1.53925 19.735L9.83067 15.5047C9.7101 15.1441 9.64478 14.7582 9.64478 14.357C9.64478 13.9752 9.70391 13.6073 9.81352 13.2619L1.91594 9.18973C1.47538 9.76567 0.781072 10.1371 0 10.1372ZM2.10297 22.7708L11.0479 29.0732C11.3406 28.3972 11.9338 27.8817 12.659 27.6951V17.9239C11.7432 17.7703 10.944 17.2725 10.3991 16.5681L2.25092 20.7254C2.35425 20.9939 2.41089 21.2858 2.41089 21.5909C2.41089 22.0195 2.29906 22.422 2.10297 22.7708Z" fill="white"/>
<path fill-rule="evenodd" clip-rule="evenodd" d="M15.4764 29.0733L24.7055 22.5708C24.3367 22.1473 24.1134 21.5938 24.1134 20.9881C24.1134 20.8724 24.1216 20.7585 24.1373 20.6471L16.1538 16.5306C15.6085 17.2549 14.7974 17.7676 13.8655 17.9239V27.6951C14.5907 27.8817 15.1838 28.3973 15.4764 29.0733ZM26.5244 18.5768V10.1372C25.7856 10.1372 25.1244 9.80485 24.6821 9.28142L16.7336 13.3368C16.8286 13.6604 16.8795 14.0028 16.8795 14.357C16.8795 14.7417 16.8195 15.1124 16.7082 15.4602L24.6032 19.531C25.0435 18.9512 25.7403 18.5769 26.5244 18.5768Z" fill="white"/>
</svg>
