<svg width="86" height="85" viewBox="0 0 86 85" fill="none" xmlns="http://www.w3.org/2000/svg">
<g clip-path="url(#clip0_336_856)">
<path d="M7.355 8.22611C8.11225 8.22611 8.72611 7.61225 8.72611 6.855C8.72611 6.09776 8.11225 5.48389 7.355 5.48389C6.59776 5.48389 5.98389 6.09776 5.98389 6.855C5.98389 7.61225 6.59776 8.22611 7.355 8.22611Z" fill="#F9BA48"/>
<path d="M12.8389 8.22611C13.5961 8.22611 14.21 7.61225 14.21 6.855C14.21 6.09776 13.5961 5.48389 12.8389 5.48389C12.0816 5.48389 11.4678 6.09776 11.4678 6.855C11.4678 7.61225 12.0816 8.22611 12.8389 8.22611Z" fill="#F9BA48"/>
<path d="M18.3228 8.22611C19.08 8.22611 19.6939 7.61225 19.6939 6.855C19.6939 6.09776 19.08 5.48389 18.3228 5.48389C17.5655 5.48389 16.9517 6.09776 16.9517 6.855C16.9517 7.61225 17.5655 8.22611 18.3228 8.22611Z" fill="#F9BA48"/>
<path d="M51.226 17.8228H7.35498V42.5002H51.226V17.8228Z" fill="#F9BA48"/>
<path d="M80.0161 19.3319V0H0.5V63.0645H56.7095V70.6048C56.7095 78.5428 63.1668 85 71.1048 85C79.0428 85 85.5 78.5428 85.5 70.6048V26.0485C85.5 22.7389 83.1406 19.9695 80.0161 19.3319ZM77.2742 10.9677H69.0484V2.74194H77.2742V10.9677ZM66.3064 2.74194V10.9677H3.24194V2.74194H66.3064ZM56.7095 26.0485V60.3226H3.24194V13.7097H77.2742V19.1935H63.5645C59.7849 19.1935 56.7095 22.2686 56.7095 26.0485ZM82.7581 70.6048C82.7581 77.0304 77.5307 82.2581 71.1048 82.2581C64.6788 82.2581 59.4515 77.0307 59.4515 70.6048V26.0485C59.4515 23.781 61.2967 21.9355 63.5642 21.9355H78.6447C80.9123 21.9355 82.7575 23.7807 82.7575 26.0485V70.6048H82.7581Z" fill="#333333"/>
<path d="M63.5645 27.4195C64.3217 27.4195 64.9356 26.8056 64.9356 26.0484C64.9356 25.2911 64.3217 24.6772 63.5645 24.6772C62.8072 24.6772 62.1934 25.2911 62.1934 26.0484C62.1934 26.8056 62.8072 27.4195 63.5645 27.4195Z" fill="#333333"/>
<path d="M66.3061 30.1611H62.1934V32.9031H66.3061V30.1611Z" fill="#333333"/>
<path d="M73.1611 30.1611H69.0483V32.9031H73.1611V30.1611Z" fill="#333333"/>
<path d="M80.0161 30.1611H75.9033V32.9031H80.0161V30.1611Z" fill="#333333"/>
<path d="M66.3061 35.645H62.1934V38.387H66.3061V35.645Z" fill="#333333"/>
<path d="M73.1611 35.645H69.0483V38.387H73.1611V35.645Z" fill="#333333"/>
<path d="M80.0161 35.645H75.9033V38.387H80.0161V35.645Z" fill="#333333"/>
<path d="M66.3061 41.1289H62.1934V43.8708H66.3061V41.1289Z" fill="#333333"/>
<path d="M73.1611 41.1289H69.0483V43.8708H73.1611V41.1289Z" fill="#333333"/>
<path d="M80.0161 41.1289H75.9033V43.8708H80.0161V41.1289Z" fill="#333333"/>
<path d="M66.3061 46.6128H62.1934V49.3547H66.3061V46.6128Z" fill="#333333"/>
<path d="M73.1611 46.6128H69.0483V49.3547H73.1611V46.6128Z" fill="#333333"/>
<path d="M80.0161 46.6128H75.9033V49.3547H80.0161V46.6128Z" fill="#333333"/>
<path d="M45.7421 23.3066H12.8389V26.0486H45.7421V23.3066Z" fill="#333333"/>
</g>
<defs>
<clipPath id="clip0_336_856">
<rect width="85" height="85" fill="white" transform="translate(0.5)"/>
</clipPath>
</defs>
</svg>
