<svg width="90" height="89" viewBox="0 0 90 89" fill="none" xmlns="http://www.w3.org/2000/svg">
<g clip-path="url(#clip0_284_712)">
<path d="M44.9999 28.7097V17.2258C25.1802 17.2258 9.11279 33.2932 9.11279 53.1129C9.11279 72.9327 25.1802 89 44.9999 89C64.8196 89 80.887 72.9327 80.887 53.1129C80.887 43.6861 77.248 35.1134 71.3037 28.7097H44.9999Z" fill="#FFCB57"/>
<path d="M88.0645 15.7903H45V18.6613H88.0645V15.7903Z" fill="#E56565"/>
<path d="M88.0645 21.5322H45V24.4032H88.0645V21.5322Z" fill="#E56565"/>
<path d="M74.1474 32.1735L71.8176 33.8501C75.8728 39.4858 78.016 46.1465 78.016 53.1129C78.016 60.0219 75.8786 66.4399 72.2368 71.7469C71.0109 70.8411 69.5165 70.3387 67.9676 70.3387C64.01 70.3387 60.7902 73.5585 60.7902 77.5161C60.7902 78.9186 61.2108 80.2722 61.9616 81.4264C57.0005 84.4093 51.1983 86.129 44.9999 86.129C41.3164 86.129 37.7765 85.5132 34.4649 84.395C34.7792 83.5767 34.9515 82.7054 34.9515 81.8226C34.9515 77.8649 31.7317 74.6451 27.7741 74.6451C25.684 74.6451 23.7217 75.5768 22.3724 77.1228C15.983 71.0981 11.9838 62.567 11.9838 53.1129C11.9838 43.366 16.2744 34.5133 23.1274 28.4269C24.4179 29.5236 26.0601 30.1451 27.7741 30.1451C31.7317 30.1451 34.9515 26.9254 34.9515 22.9677C34.9515 22.5385 34.8998 22.115 34.8237 21.6973C36.7631 21.07 38.7842 20.6135 40.8714 20.3523L40.5154 17.5043C22.6121 19.7364 9.11279 35.0445 9.11279 53.1129C9.11279 72.901 25.2117 89 44.9999 89C64.788 89 80.887 72.901 80.887 53.1129C80.887 45.5407 78.5558 38.3001 74.1474 32.1735ZM32.0805 22.9677C32.0805 25.342 30.1484 27.2742 27.7741 27.2742C26.9315 27.2742 26.1247 27.01 25.4314 26.5579C27.4726 25.0492 29.6775 23.7458 32.049 22.7323C32.0547 22.8127 32.0805 22.8888 32.0805 22.9677ZM27.7741 77.5161C30.1484 77.5161 32.0805 79.4483 32.0805 81.8226C32.0805 82.3508 31.9499 82.8619 31.7633 83.3499C29.1694 82.2101 26.7491 80.7445 24.5543 79.0076C25.3653 78.0846 26.5252 77.5161 27.7741 77.5161ZM64.3617 79.8315C63.921 79.144 63.6612 78.3487 63.6612 77.5161C63.6612 75.1418 65.5933 73.2097 67.9676 73.2097C68.8906 73.2097 69.7792 73.5082 70.5127 74.0451C68.7198 76.2271 66.6499 78.1693 64.3617 79.8315Z" fill="#3F3A34"/>
<path d="M43.5645 0V50.2419H46.4354V30.1452H89.4999V0H43.5645ZM86.629 10.0484H57.9193V2.87097H86.629V10.0484ZM55.0483 2.87097V10.0484H46.4354V2.87097H55.0483ZM46.4354 27.2742V12.9194H86.629V27.2742H46.4354Z" fill="#3F3A34"/>
<path d="M45.0005 54.5484C31.7409 54.5484 24.9037 51.5296 24.9037 50.2419C24.9037 49.2931 29.6236 46.6518 40.7715 46.0489L40.6179 43.1808C37.513 43.3502 22.0327 44.4799 22.0327 50.2419C22.0327 55.1743 33.9386 57.4194 45.0005 57.4194C56.0623 57.4194 67.9682 55.1743 67.9682 50.2419C67.9682 44.4799 52.4879 43.3502 49.3844 43.1822L49.2308 46.0503C60.3774 46.6518 65.0972 49.2931 65.0972 50.2419C65.0972 51.5296 58.26 54.5484 45.0005 54.5484Z" fill="#3F3A34"/>
<path d="M75.1448 53.1129V50.2419C71.9781 50.2419 69.4028 52.8172 69.4028 55.9839C69.4028 59.1506 71.9781 61.7258 75.1448 61.7258V58.8548C73.5614 58.8548 72.2738 57.5672 72.2738 55.9839C72.2738 54.4005 73.5614 53.1129 75.1448 53.1129Z" fill="#3F3A34"/>
<path d="M14.855 57.4193V60.2903C18.0217 60.2903 20.5969 57.715 20.5969 54.5483C20.5969 51.3817 18.0217 48.8064 14.855 48.8064V51.6774C16.4383 51.6774 17.7259 52.965 17.7259 54.5483C17.7259 56.1317 16.4383 57.4193 14.855 57.4193Z" fill="#3F3A34"/>
<path d="M27.7739 64.5967C27.7739 66.971 29.7061 68.9032 32.0804 68.9032C34.4547 68.9032 36.3868 66.971 36.3868 64.5967C36.3868 62.2224 34.4547 60.2903 32.0804 60.2903C29.7061 60.2903 27.7739 62.2224 27.7739 64.5967ZM33.5159 64.5967C33.5159 65.3891 32.8728 66.0322 32.0804 66.0322C31.288 66.0322 30.6449 65.3891 30.6449 64.5967C30.6449 63.8043 31.288 63.1613 32.0804 63.1613C32.8728 63.1613 33.5159 63.8043 33.5159 64.5967Z" fill="#3F3A34"/>
<path d="M43.5645 77.5162C43.5645 79.8905 45.4966 81.8226 47.8709 81.8226C50.2452 81.8226 52.1774 79.8905 52.1774 77.5162C52.1774 75.1419 50.2452 73.2097 47.8709 73.2097C45.4966 73.2097 43.5645 75.1419 43.5645 77.5162ZM49.3064 77.5162C49.3064 78.3086 48.6633 78.9517 47.8709 78.9517C47.0785 78.9517 46.4354 78.3086 46.4354 77.5162C46.4354 76.7238 47.0785 76.0807 47.8709 76.0807C48.6633 76.0807 49.3064 76.7238 49.3064 77.5162Z" fill="#3F3A34"/>
<path d="M56.4839 63.1613C56.4839 65.5356 58.416 67.4678 60.7903 67.4678C63.1646 67.4678 65.0968 65.5356 65.0968 63.1613C65.0968 60.787 63.1646 58.8549 60.7903 58.8549C58.416 58.8549 56.4839 60.787 56.4839 63.1613ZM62.2258 63.1613C62.2258 63.9537 61.5827 64.5968 60.7903 64.5968C59.998 64.5968 59.3549 63.9537 59.3549 63.1613C59.3549 62.3689 59.998 61.7258 60.7903 61.7258C61.5827 61.7258 62.2258 62.3689 62.2258 63.1613Z" fill="#3F3A34"/>
<path d="M63.6612 37.3226C63.6612 34.9483 61.7291 33.0161 59.3548 33.0161C56.9805 33.0161 55.0483 34.9483 55.0483 37.3226C55.0483 39.6969 56.9805 41.629 59.3548 41.629C61.7291 41.629 63.6612 39.6969 63.6612 37.3226ZM57.9193 37.3226C57.9193 36.5316 58.5624 35.8871 59.3548 35.8871C60.1472 35.8871 60.7903 36.5316 60.7903 37.3226C60.7903 38.1135 60.1472 38.758 59.3548 38.758C58.5624 38.758 57.9193 38.1135 57.9193 37.3226Z" fill="#3F3A34"/>
<path d="M26.3392 43.0646C28.7135 43.0646 30.6456 41.1324 30.6456 38.7581C30.6456 36.3838 28.7135 34.4517 26.3392 34.4517C23.9649 34.4517 22.0327 36.3838 22.0327 38.7581C22.0327 41.1324 23.9649 43.0646 26.3392 43.0646ZM26.3392 37.3226C27.1316 37.3226 27.7747 37.9672 27.7747 38.7581C27.7747 39.5491 27.1316 40.1936 26.3392 40.1936C25.5468 40.1936 24.9037 39.5491 24.9037 38.7581C24.9037 37.9672 25.5468 37.3226 26.3392 37.3226Z" fill="#3F3A34"/>
<path d="M9.1129 4.30645C9.1129 1.93216 7.18074 0 4.80645 0C2.43216 0 0.5 1.93216 0.5 4.30645C0.5 6.68074 2.43216 8.6129 4.80645 8.6129C7.18074 8.6129 9.1129 6.68074 9.1129 4.30645ZM3.37097 4.30645C3.37097 3.5155 4.01406 2.87097 4.80645 2.87097C5.59884 2.87097 6.24194 3.5155 6.24194 4.30645C6.24194 5.0974 5.59884 5.74194 4.80645 5.74194C4.01406 5.74194 3.37097 5.0974 3.37097 4.30645Z" fill="#3F3A34"/>
<path d="M85.1937 80.3871C82.8194 80.3871 80.8872 82.3192 80.8872 84.6935C80.8872 87.0678 82.8194 89 85.1937 89C87.5679 89 89.5001 87.0678 89.5001 84.6935C89.5001 82.3192 87.5679 80.3871 85.1937 80.3871ZM85.1937 86.129C84.4013 86.129 83.7582 85.4859 83.7582 84.6935C83.7582 83.9011 84.4013 83.2581 85.1937 83.2581C85.986 83.2581 86.6291 83.9011 86.6291 84.6935C86.6291 85.4859 85.986 86.129 85.1937 86.129Z" fill="#3F3A34"/>
<path d="M9.11309 74.6451C6.7388 74.6451 4.80664 76.5773 4.80664 78.9516C4.80664 81.3259 6.7388 83.258 9.11309 83.258C11.4874 83.258 13.4195 81.3259 13.4195 78.9516C13.4195 76.5773 11.4874 74.6451 9.11309 74.6451ZM9.11309 80.3871C8.32071 80.3871 7.67761 79.744 7.67761 78.9516C7.67761 78.1592 8.32071 77.5161 9.11309 77.5161C9.90548 77.5161 10.5486 78.1592 10.5486 78.9516C10.5486 79.744 9.90548 80.3871 9.11309 80.3871Z" fill="#3F3A34"/>
<path d="M11.9838 8.61292H9.11279V11.4839H11.9838V8.61292Z" fill="#E56565"/>
<path d="M27.7738 12.9194H24.9028V15.7904H27.7738V12.9194Z" fill="#E56565"/>
<path d="M13.4193 24.4033H10.5483V27.2743H13.4193V24.4033Z" fill="#E56565"/>
<path d="M3.37097 63.1614H0.5V66.0323H3.37097V63.1614Z" fill="#E56565"/>
<path d="M17.7259 84.6936H14.855V87.5646H17.7259V84.6936Z" fill="#E56565"/>
<path d="M89.4999 61.7258H86.6289V64.5968H89.4999V61.7258Z" fill="#E56565"/>
<path d="M75.1449 83.2582H72.2739V86.1291H75.1449V83.2582Z" fill="#E56565"/>
<path d="M85.1932 34.4517H82.3223V37.3226H85.1932V34.4517Z" fill="#E56565"/>
</g>
<defs>
<clipPath id="clip0_284_712">
<rect width="89" height="89" fill="white" transform="translate(0.5)"/>
</clipPath>
</defs>
</svg>
