<svg width="106" height="107" viewBox="0 0 106 107" fill="none" xmlns="http://www.w3.org/2000/svg">
<g clip-path="url(#clip0_336_89)">
<path d="M76.9352 58.677H29.0645C27.9959 58.677 27.0556 59.181 26.4283 59.9557C25.9359 57.8814 25.6452 55.7276 25.6452 53.4994C25.6452 38.2487 37.8917 25.8867 52.9998 25.8867C68.108 25.8867 80.3545 38.2487 80.3545 53.4994C80.3545 55.7276 80.0656 57.8814 79.5714 59.9557C78.9441 59.181 78.0038 58.677 76.9352 58.677Z" fill="#3E71EF"/>
<path d="M29.0649 56.9514H76.9351C79.7629 56.9514 82.064 59.2742 82.064 62.129V93.1933C82.064 96.0477 79.7629 98.3709 76.9351 98.3709H64.9677V103.548H68.387V107H64.9677H41.0324H37.613V103.548H41.0324V98.3709H29.0649C26.2371 98.3709 23.9357 96.0481 23.9357 93.1933V62.1286C23.9357 59.2742 26.2368 56.9514 29.0649 56.9514ZM44.4517 103.548H61.5483V98.3701H44.4517V103.548ZM27.355 93.1929C27.355 94.1439 28.121 94.9189 29.0649 94.9189H41.0324H64.9677H76.9351C77.8791 94.9189 78.6446 94.1439 78.6446 93.1929V62.1286C78.6446 61.1776 77.8787 60.4026 76.9351 60.4026H29.0645C28.1206 60.4026 27.3547 61.1776 27.3547 62.1286V93.1929H27.355Z" fill="#3E71EF"/>
<path d="M76.9352 93.193H29.0645V62.1287H76.9352V93.193ZM73.5158 65.5803H32.4839V89.7414H73.5158V65.5803Z" fill="#3E71EF"/>
<path d="M78.6444 32.7903V5.17757C78.6444 2.32278 80.9454 0 83.7732 0H100.87C103.698 0 105.999 2.32278 105.999 5.17757V32.7903C105.999 35.6447 103.698 37.9678 100.87 37.9678H83.7736C80.9454 37.9675 78.6444 35.6447 78.6444 32.7903ZM100.87 3.45159H83.7732C82.8293 3.45159 82.0637 4.22659 82.0637 5.17757V27.6127H102.58V5.17757C102.58 4.22659 101.814 3.45159 100.87 3.45159ZM83.7732 34.5159H92.3217H100.87C101.814 34.5159 102.579 33.7409 102.579 32.7899V31.0639H92.3217H82.0637V32.7899C82.0637 33.7409 82.8296 34.5159 83.7732 34.5159Z" fill="#3E71EF"/>
<path d="M92.3224 34.5162C91.3781 34.5162 90.6125 33.7434 90.6125 32.7902C90.6125 31.837 91.3781 31.0642 92.3224 31.0642C93.2667 31.0642 94.0322 31.837 94.0322 32.7902C94.0322 33.7434 93.2667 34.5162 92.3224 34.5162Z" fill="#3E71EF"/>
<path d="M3.4197 20.7095V5.17757C3.4197 2.32278 5.72079 0 8.54889 0H32.4842C35.3119 0 37.613 2.32278 37.613 5.17757V20.7095H41.0323V27.6127C41.0323 29.5161 39.4987 31.0643 37.613 31.0643H3.4197C1.53406 31.0643 0.00037384 29.5161 0.00037384 27.6127V20.7095H3.4197ZM34.1937 5.17757C34.1937 4.22659 33.4278 3.45159 32.4838 3.45159H8.54852C7.60497 3.45159 6.83904 4.22659 6.83904 5.17757V20.7095H18.8065V22.4355H22.2258V20.7095H34.1933V5.17757H34.1937ZM3.4197 27.6127H37.613V24.1611H25.6455V25.8871H15.3875V24.1611H3.42007L3.4197 27.6127Z" fill="#3E71EF"/>
<path d="M92.3891 41.9022L95.6717 40.9358C96.8512 45.0276 97.4515 49.2542 97.4515 53.4996C97.4515 64.1772 93.6627 74.5283 86.7832 82.6465L84.1845 80.4028C90.5341 72.9095 94.0322 63.3536 94.0322 53.4996C94.0318 49.5804 93.4796 45.6786 92.3891 41.9022Z" fill="#3E71EF"/>
<path d="M41.5094 13.7375L40.5538 10.424C44.6074 9.23332 48.7945 8.62915 53.0002 8.62915C61.1741 8.62915 69.1686 10.8901 76.1167 15.1682L74.3368 18.1143C64.6274 12.1356 52.5315 10.4998 41.5094 13.7375Z" fill="#3E71EF"/>
<path d="M16.1484 35.277C13.3754 40.9807 11.9682 47.1126 11.9682 53.4996C11.9682 63.354 15.4663 72.9095 21.8159 80.4028L19.2172 82.6464C12.3373 74.5283 8.5489 64.1768 8.5489 53.4996C8.5489 46.5791 10.0738 39.9366 13.0796 33.7546L16.1484 35.277Z" fill="#3E71EF"/>
</g>
<defs>
<clipPath id="clip0_336_89">
<rect width="106" height="107" fill="white" transform="matrix(-1 0 0 1 106 0)"/>
</clipPath>
</defs>
</svg>
