<svg width="72" height="72" viewBox="0 0 72 72" fill="none" xmlns="http://www.w3.org/2000/svg">
<g clip-path="url(#clip0_284_1516)">
<path d="M69.5972 30.924C68.062 26.3194 63.7699 23.2257 58.9157 23.2257C54.4065 23.2257 50.3441 25.9036 48.5675 30.0482L47.7059 32.0572L49.8403 32.9722L50.7019 30.9632C52.1129 27.6744 55.3366 25.5481 58.9157 25.5481C62.7676 25.5481 66.175 28.0031 67.3931 31.6575C68.9085 36.2062 69.6774 40.9419 69.6774 45.7335V67.9349C69.6774 68.8953 68.8958 69.6769 67.9355 69.6769C66.9751 69.6769 66.1935 68.8953 66.1935 67.9349V63.8703H63.8709V67.9349C63.8709 68.8953 63.0893 69.6769 62.1289 69.6769C61.1685 69.6769 60.3869 68.8953 60.3869 67.9349V63.8703H58.0643V67.9349C58.0643 68.8953 57.2827 69.6769 56.3224 69.6769C55.362 69.6769 54.5804 68.8953 54.5804 67.9349V63.8703C54.5804 60.6686 51.9756 58.0638 48.7738 58.0638V60.3864C50.6946 60.3864 52.2578 61.9496 52.2578 63.8703V67.9349C52.2578 70.1761 54.0809 71.9995 56.3224 71.9995C57.4593 71.9995 58.4869 71.5315 59.2256 70.7767C59.9643 71.5315 60.992 71.9995 62.1289 71.9995C63.2658 71.9995 64.2935 71.5315 65.0322 70.7767C65.7709 71.5315 66.7985 71.9995 67.9355 71.9995C70.1766 71.9995 72 70.1763 72 67.9349V45.7335C71.9998 40.6927 71.1916 35.7097 69.5972 30.924Z" fill="#333333"/>
<path d="M4.60695 31.659C5.82508 28.0034 9.23122 25.5483 13.0844 25.5483C16.6634 25.5483 19.8871 27.6746 21.2982 30.9647L22.1597 32.9737L24.2941 32.0587L23.4325 30.0497C21.6547 25.9039 17.5935 23.226 13.0844 23.226C8.23013 23.226 3.93923 26.3197 2.40407 30.9242C0.808186 35.7097 0 40.6927 0 45.7337V67.9352C0 70.1763 1.82317 71.9997 4.06458 71.9997C5.20151 71.9997 6.22918 71.5318 6.96786 70.777C7.70654 71.5318 8.73421 71.9997 9.87113 71.9997C11.0081 71.9997 12.0357 71.5318 12.7744 70.777C13.5131 71.5318 14.5408 71.9997 15.6777 71.9997C17.9188 71.9997 19.7423 70.1766 19.7423 67.9352V63.8706C19.7423 61.9498 21.3055 60.3866 23.2262 60.3866V58.064C20.0244 58.064 17.4196 60.6688 17.4196 63.8706V67.9352C17.4196 68.8955 16.638 69.6771 15.6777 69.6771C14.7173 69.6771 13.9357 68.8955 13.9357 67.9352V63.8706H11.6131V67.9352C11.6131 68.8955 10.8315 69.6771 9.87113 69.6771C8.91077 69.6771 8.12917 68.8955 8.12917 67.9352V63.8706H5.80655V67.9352C5.80655 68.8955 5.02494 69.6771 4.06458 69.6771C3.10422 69.6771 2.32262 68.8955 2.32262 67.9352V45.7337C2.32262 40.9424 3.0913 36.2067 4.60695 31.659Z" fill="#333333"/>
<path d="M35.9998 65.0321C25.114 65.0321 16.2581 56.1762 16.2581 45.2904C16.2581 38.1181 20.1624 31.5 26.4484 28.0163L26.7108 27.8712H45.2891L45.5515 28.0163C51.8375 31.5002 55.7419 38.1184 55.7419 45.2904C55.7416 56.176 46.8857 65.0321 35.9998 65.0321Z" fill="#F8334A"/>
<path d="M46.481 20.0507L43.7468 24.6077H28.7088L25.5189 20.9621L24.6075 16.4051V11.8482L26.4303 10.9368L28.7088 11.8482L30.5316 15.4937L32.8101 14.1266L34.1772 10.9368H37.367L38.7341 14.1266H41.4683L43.7468 10.9368H46.481L47.3924 14.1266L46.481 20.0507Z" fill="white"/>
<path d="M38.3225 35.9998H37.1612V32.5159H34.8386V35.9998H33.6773C30.4755 35.9998 27.8707 38.6046 27.8707 41.8064C27.8707 45.0081 30.4755 47.6129 33.6773 47.6129H38.3225C40.2432 47.6129 41.8064 49.1761 41.8064 51.0968C41.8064 53.0176 40.2432 54.5808 38.3225 54.5808H33.6773C31.7566 54.5808 30.1933 53.0176 30.1933 51.0968V49.9355H27.8707V51.0968C27.8707 54.2986 30.4755 56.9034 33.6773 56.9034H34.8386V60.3873H37.1612V56.9034H38.3225C41.5243 56.9034 44.1291 54.2986 44.1291 51.0968C44.1291 47.8951 41.5243 45.2903 38.3225 45.2903H33.6773C31.7566 45.2903 30.1933 43.7271 30.1933 41.8064C30.1933 39.8856 31.7566 38.3224 33.6773 38.3224H38.3225C40.2432 38.3224 41.8064 39.8856 41.8064 41.8064V42.9677H44.1291V41.8064C44.1288 38.6046 41.524 35.9998 38.3225 35.9998Z" fill="#333333"/>
<path d="M48.774 26.7097C48.774 24.9643 47.4803 23.5277 45.8035 23.2782C47.7149 21.0065 48.774 18.1452 48.774 15.0968V12.7742C48.774 10.8535 47.2108 9.29028 45.2901 9.29028C43.3694 9.29028 41.8062 10.8535 41.8062 12.7742C41.8062 13.4141 41.2848 13.9355 40.6449 13.9355C40.005 13.9355 39.4836 13.4141 39.4836 12.7742C39.4836 10.8535 37.9204 9.29028 35.9996 9.29028C34.0789 9.29028 32.5157 10.8535 32.5157 12.7742C32.5157 13.4141 31.9943 13.9355 31.3544 13.9355C30.7145 13.9355 30.1931 13.4141 30.1931 12.7742C30.1931 10.8535 28.6299 9.29028 26.7092 9.29028C24.7884 9.29028 23.2252 10.8535 23.2252 12.7742V15.0968C23.2252 18.1452 24.2843 21.0065 26.1958 23.2782C24.519 23.5279 23.2252 24.9643 23.2252 26.7097C23.2252 28.6304 24.7884 30.1936 26.7092 30.1936H45.2896C47.2108 30.1936 48.774 28.6304 48.774 26.7097ZM25.5483 12.7742C25.5483 12.1343 26.0697 11.6129 26.7096 11.6129C27.3496 11.6129 27.8709 12.1343 27.8709 12.7742C27.8709 14.6949 29.4342 16.2581 31.3549 16.2581C33.2756 16.2581 34.8388 14.6949 34.8388 12.7742C34.8388 12.1343 35.3602 11.6129 36.0001 11.6129C36.64 11.6129 37.1614 12.1343 37.1614 12.7742C37.1614 14.6949 38.7246 16.2581 40.6454 16.2581C42.5661 16.2581 44.1293 14.6949 44.1293 12.7742C44.1293 12.1343 44.6507 11.6129 45.2906 11.6129C45.9305 11.6129 46.4519 12.1343 46.4519 12.7742V15.0968C46.4519 18.2857 45.0341 21.226 42.55 23.2258H29.4507C26.9657 21.226 25.5488 18.2857 25.5488 15.0968V12.7742H25.5483ZM45.2901 27.871H26.7096C26.0697 27.871 25.5483 27.3496 25.5483 26.7097C25.5483 26.0698 26.0697 25.5484 26.7096 25.5484H28.6665H43.3335H45.2904C45.9303 25.5484 46.4517 26.0698 46.4517 26.7097C46.4514 27.3496 45.93 27.871 45.2901 27.871Z" fill="#333333"/>
<path d="M24.387 6.96762H47.6127C49.5334 6.96762 51.0966 5.40441 51.0966 3.48369C51.0966 1.56296 49.5334 0 47.6127 0H24.387C22.4663 0 20.9031 1.56321 20.9031 3.48393C20.9031 5.40465 22.4663 6.96762 24.387 6.96762ZM24.387 2.32262H47.6127C48.2526 2.32262 48.774 2.84401 48.774 3.48393C48.774 4.12385 48.2526 4.64524 47.6127 4.64524H24.387C23.7471 4.64524 23.2257 4.12385 23.2257 3.48393C23.2257 2.84401 23.7471 2.32262 24.387 2.32262Z" fill="#333333"/>
</g>
<defs>
<clipPath id="clip0_284_1516">
<rect width="72" height="72" fill="white"/>
</clipPath>
</defs>
</svg>
