<svg width="91" height="91" viewBox="0 0 91 91" fill="none" xmlns="http://www.w3.org/2000/svg">
<g clip-path="url(#clip0_406_1619)">
<path d="M61.6454 33.7581H67.8393C62.2692 25.7794 53.0342 20.5484 42.5648 20.5484C25.5419 20.5484 11.7422 34.3481 11.7422 51.371H61.6454V33.7581Z" fill="#FFCB57"/>
<path d="M48.4352 66.0484H33.7578V83.6613H48.4352V66.0484Z" fill="#FFCB57"/>
<path d="M27.8874 66.0484H13.21V83.6613H27.8874V66.0484Z" fill="#FFCB57"/>
<path d="M86.5957 4.40323C86.5957 1.97558 84.6202 0 82.1925 0C79.7649 0 77.7893 1.97558 77.7893 4.40323C77.7893 4.64394 77.823 4.87731 77.8612 5.10774L71.001 10.5956L72.8357 12.8882L79.3128 7.70711C79.6709 8.01974 80.0702 8.28687 80.5163 8.47034L79.2776 15.9045L82.1734 16.3859L83.4724 8.5951C85.2733 8.04323 86.5957 6.38321 86.5957 4.40323ZM82.1925 5.87097C81.3823 5.87097 80.7248 5.21342 80.7248 4.40323C80.7248 3.59303 81.3823 2.93548 82.1925 2.93548C83.0027 2.93548 83.6602 3.59303 83.6602 4.40323C83.6602 5.21342 83.0027 5.87097 82.1925 5.87097Z" fill="#E56565"/>
<path d="M79.2578 64.5806H76.3223V67.5161H79.2578V64.5806Z" fill="#E56565"/>
<path d="M70.4511 64.5806H67.5156V67.5161H70.4511V64.5806Z" fill="#E56565"/>
<path d="M61.6445 64.5806H58.709V67.5161H61.6445V64.5806Z" fill="#E56565"/>
<path d="M82.1937 88.0646H76.3227V70.4517H61.6453V88.0646H8.80658V64.5807H5.87109V91.0001H85.1292V64.5807H82.1937V88.0646ZM64.5808 73.3872H73.3872V88.0646H64.5808V73.3872Z" fill="#3F3A34"/>
<path d="M17.6132 58.7098H14.6777V61.6453H17.6132V58.7098Z" fill="#3F3A34"/>
<path d="M88.0645 49.9033H13.2845C13.4386 46.8181 14.0639 43.862 15.1016 41.0968H21.4232L21.8371 40.3218C25.9365 32.6514 33.8784 27.8871 42.5645 27.8871H44.0323V22.0837C50.734 22.4183 57.1186 25.0001 62.1383 29.4943L64.0963 27.3074C58.171 22.0015 50.5241 19.0807 42.5645 19.0807C39.2019 19.0807 35.9582 19.5988 32.9068 20.5572L21.8899 9.54035L22.0161 9.41412C22.9628 8.4689 23.4839 7.20957 23.4839 5.87099C23.4839 4.53241 22.9628 3.27309 22.0161 2.32786L21.156 1.46777C19.2641 -0.424152 15.9617 -0.424152 14.0698 1.46777L1.46774 14.0698C0.521048 15.015 0 16.2743 0 17.6129C0 18.9515 0.521048 20.2108 1.46774 21.1561L2.32784 22.0162C3.27306 22.9628 4.53239 23.4839 5.87097 23.4839C7.20955 23.4839 8.46887 22.9628 9.4141 22.0162L9.54032 21.8899L18.0459 30.3955C13.5047 35.6955 10.6455 42.4735 10.3109 49.9033H2.93548C1.31656 49.9033 0 51.2198 0 52.8387V58.7097C0 60.3286 1.31656 61.6452 2.93548 61.6452H11.7419V58.7097H2.93548V52.8387H88.0645V58.7097H20.5484V61.6452H88.0645C89.6834 61.6452 91 60.3286 91 58.7097V52.8387C91 51.2198 89.6834 49.9033 88.0645 49.9033ZM19.6795 38.1613H16.3859C21.021 29.0143 30.2913 22.6282 41.0968 22.091V24.9927C32.1993 25.483 24.1561 30.4146 19.6795 38.1613ZM4.40323 19.9408L3.54313 19.0807C3.15124 18.6873 2.93548 18.1677 2.93548 17.6129C2.93548 17.0581 3.15124 16.5385 3.54313 16.1452L16.1452 3.54316C16.5385 3.15127 17.0581 2.93551 17.6129 2.93551C18.1677 2.93551 18.6873 3.15127 19.0806 3.54316L19.9407 4.40325C20.3326 4.79661 20.5484 5.31619 20.5484 5.87099C20.5484 6.4258 20.3326 6.94538 19.9407 7.33874L7.33871 19.9408C6.55347 20.7231 5.18847 20.7231 4.40323 19.9408ZM19.8145 11.6157L29.8788 21.68C26.2021 23.2564 22.8792 25.4991 20.0538 28.2526L11.6157 19.8145L19.8145 11.6157Z" fill="#3F3A34"/>
<path d="M66.0479 42.5646C66.0479 44.9922 68.0234 46.9678 70.4511 46.9678C72.8787 46.9678 74.8543 44.9922 74.8543 42.5646C74.8543 40.137 72.8787 38.1614 70.4511 38.1614C68.0234 38.1614 66.0479 40.137 66.0479 42.5646ZM71.9188 42.5646C71.9188 43.3748 71.2613 44.0323 70.4511 44.0323C69.6409 44.0323 68.9833 43.3748 68.9833 42.5646C68.9833 41.7544 69.6409 41.0969 70.4511 41.0969C71.2613 41.0969 71.9188 41.7544 71.9188 42.5646Z" fill="#3F3A34"/>
<path d="M66.0477 25.7986V32.2904H60.1767V46.9679H63.1122V35.2259H77.7896V46.9679H80.7251V32.2904H74.8542V29.3124C75.1639 29.3315 75.4736 29.3535 75.7818 29.3535C81.299 29.3535 86.5345 26.3109 89.3466 21.2604L90.0394 20.0172L62.9977 3.83386L62.2609 5.15777C58.3832 12.1207 60.0388 20.8465 66.0477 25.7986ZM68.9832 32.2904V19.0808H69.8433L71.9187 21.1562V32.2904H68.9832ZM64.1617 7.95088L86.0237 21.0358C83.4434 24.6787 79.1972 26.691 74.8556 26.3534V19.9394L71.0586 16.1453H66.0477V21.6669C62.9963 17.8802 62.2154 12.5831 64.1617 7.95088Z" fill="#3F3A34"/>
<path d="M24.3398 41.8851L26.9422 43.2442C27.4397 42.2917 28.0268 41.3787 28.6888 40.5348L26.3785 38.7236C25.6065 39.7099 24.9211 40.7725 24.3398 41.8851Z" fill="#3F3A34"/>
<path d="M42.5642 33.7582V30.8227C37.2393 30.8227 32.1873 32.8599 28.3389 36.5572L30.3717 38.6722C33.6697 35.5033 38.001 33.7582 42.5642 33.7582Z" fill="#3F3A34"/>
<path d="M11.7422 85.1291H29.3551V64.5807H11.7422V85.1291ZM14.6777 79.2582H19.0809V82.1937H14.6777V79.2582ZM19.0809 76.3227H14.6777V73.3872H19.0809V76.3227ZM22.0164 73.3872H26.4196V76.3227H22.0164V73.3872ZM22.0164 82.1937V79.2582H26.4196V82.1937H22.0164ZM26.4196 70.4517H22.0164V67.5162H26.4196V70.4517ZM19.0809 67.5162V70.4517H14.6777V67.5162H19.0809Z" fill="#3F3A34"/>
<path d="M32.29 64.5807V85.1291H49.9029V64.5807H32.29ZM46.9675 70.4517H42.5642V67.5162H46.9675V70.4517ZM42.5642 73.3872H46.9675V76.3227H42.5642V73.3872ZM39.6288 76.3227H35.2255V73.3872H39.6288V76.3227ZM39.6288 67.5162V70.4517H35.2255V67.5162H39.6288ZM35.2255 79.2582H39.6288V82.1937H35.2255V79.2582ZM42.5642 82.1937V79.2582H46.9675V82.1937H42.5642Z" fill="#3F3A34"/>
</g>
<defs>
<clipPath id="clip0_406_1619">
<rect width="91" height="91" fill="white"/>
</clipPath>
</defs>
</svg>
