<svg width="116" height="116" viewBox="0 0 116 116" fill="none" xmlns="http://www.w3.org/2000/svg">
<circle cx="58" cy="58" r="58" fill="#F2EEE8"/>
<g clip-path="url(#clip0_404_4)">
<path d="M68.3421 81.0065H48.1357V78.0003C48.1357 74.8816 46.9086 71.7543 44.6816 69.1925C41.8156 65.9022 40.252 61.6869 40.2777 57.3245C40.3338 47.924 48.01 39.9234 57.3893 39.4901C62.3601 39.2666 67.0592 41.0179 70.6413 44.4395C74.2257 47.8634 76.2003 52.4771 76.2003 57.4322C76.2003 61.8338 74.586 66.0682 71.6538 69.3563C69.5187 71.7507 68.3421 74.8178 68.3421 77.9923V81.0065Z" fill="#F9BA48"/>
<path d="M89.6711 64.1679V50.6969H84.3243C83.6955 48.2553 82.7302 45.9271 81.4449 43.7514L85.2269 39.9682L75.7029 30.4442L71.9197 34.2262C69.7441 32.941 67.4159 31.9744 64.9743 31.3469V26H51.5033V31.3469C49.0617 31.9756 46.7335 32.941 44.5578 34.2262L40.7749 30.4442L31.2509 39.9682L35.0329 43.7514C33.7476 45.9271 32.7811 48.2553 32.1535 50.6969H26.8066V64.1679H32.1535C32.7822 66.6095 33.7476 68.9377 35.0329 71.1133L31.2509 74.8965L40.7749 84.4205L44.5602 80.6364C45.0024 80.8924 45.4796 81.1437 45.977 81.3941C45.9242 81.631 45.8905 81.8757 45.8905 82.1293C45.8905 83.3248 46.5213 84.3713 47.4631 84.9684C47.1847 85.459 47.0128 86.017 47.0128 86.6198C47.0128 87.8152 47.6437 88.8617 48.5855 89.4588C48.3071 89.9494 48.1352 90.5074 48.1352 91.1102C48.1352 92.9669 49.6463 94.478 51.503 94.478H64.974C66.8308 94.478 68.3419 92.9669 68.3419 91.1102C68.3419 90.5074 68.17 89.9494 67.8916 89.4588C68.8334 88.8617 69.4642 87.8154 69.4642 86.6198C69.4642 86.017 69.2924 85.459 69.014 84.9684C69.9558 84.3713 70.5866 83.325 70.5866 82.1293C70.5866 81.8757 70.5529 81.631 70.5001 81.3929C70.9963 81.1437 71.4744 80.8922 71.9169 80.6352L75.7022 84.4193L85.2262 74.8953L81.4442 71.1121C82.7306 68.9365 83.696 66.6083 84.3236 64.1667H89.6704V64.1679H89.6711ZM49.2583 83.2517C48.6385 83.2517 48.1357 82.7489 48.1357 82.1291C48.1357 81.5093 48.6385 81.0065 49.2583 81.0065H67.2195C67.8393 81.0065 68.3421 81.5093 68.3421 82.1291C68.3421 82.7489 67.8393 83.2517 67.2195 83.2517H66.0969H50.3806H49.2583ZM54.8711 69.3575C55.5198 69.6291 56.2306 69.7807 56.976 69.7807H57.1163V73.1485H59.3615V69.7807H59.5018C60.2472 69.7807 60.9577 69.6291 61.6067 69.3575V78.7613H54.8713V69.3575H54.8711ZM67.2195 86.6195C67.2195 87.2393 66.7167 87.7421 66.0969 87.7421H64.9743H51.5033H50.3806C49.7609 87.7421 49.258 87.2393 49.258 86.6195C49.258 85.9998 49.7609 85.4969 50.3806 85.4969H66.0969C66.7167 85.4969 67.2195 85.9998 67.2195 86.6195ZM64.9745 92.2323H51.5035C50.8837 92.2323 50.3809 91.7295 50.3809 91.1097C50.3809 90.4899 50.8837 89.9871 51.5035 89.9871H64.9745C65.5943 89.9871 66.0971 90.4899 66.0971 91.1097C66.0969 91.7295 65.5941 92.2323 64.9745 92.2323ZM82.3431 62.8018C81.7224 65.6014 80.6245 68.2507 79.0785 70.6779L78.5948 71.4379L82.0524 74.8965L75.7032 81.2458L72.2446 77.7881L71.4845 78.2719C70.8322 78.6884 70.088 79.0868 69.2808 79.4855C68.7082 79.0388 68 78.7615 67.2197 78.7615H63.8519V67.593C64.5469 66.6759 64.9745 65.5465 64.9745 64.3084V64.0279C64.9745 61.0103 62.5195 58.5553 59.502 58.5553H56.9763C55.1969 58.5553 53.7489 57.1072 53.7489 55.328V55.0475C53.7489 53.2681 55.1971 51.8202 56.9763 51.8202H59.502C61.2814 51.8202 62.7293 53.2683 62.7293 55.0475V55.1877H64.9745V55.0475C64.9745 52.03 62.5195 49.575 59.502 49.575H59.3615V46.2064H57.1163V49.5742H56.976C53.9585 49.5742 51.5035 52.0293 51.5035 55.0468V55.3273C51.5035 58.3448 53.9585 60.7998 56.976 60.7998H59.5018C61.2811 60.7998 62.7291 62.248 62.7291 64.0271V64.3077C62.7291 66.0871 61.2809 67.535 59.5018 67.535H56.976C55.1966 67.535 53.7487 66.4124 53.7487 64.1672H51.5035C51.5035 65.2898 51.9311 66.6738 52.6261 67.5923V78.7608H49.2583C48.478 78.7608 47.7698 79.038 47.1972 79.4848C46.39 79.0864 45.6458 78.6877 44.9935 78.2712L44.2334 77.7874L40.7749 81.2451L34.4256 74.8958L37.8832 71.4372L37.3995 70.6772C35.8537 68.2514 34.7559 65.6019 34.1349 62.801L33.9395 61.922H29.0519V52.9414H33.9395L34.1349 52.0623C34.7556 49.2626 35.8535 46.6133 37.3995 44.1861L37.8832 43.4261L34.4256 39.9682L40.7749 33.619L44.2334 37.0766L44.9935 36.5929C47.4193 35.0471 50.0688 33.9492 52.8696 33.3283L53.7487 33.1329V28.2452H62.7293V33.1329L63.6084 33.3283C66.4081 33.949 69.0573 35.0469 71.4845 36.5929L72.2446 37.0766L75.7032 33.619L82.0524 39.9682L78.5948 43.4268L79.0785 44.1868C80.6243 46.6126 81.7221 49.2621 82.3431 52.063L82.5385 52.9421H87.4262V61.9227H82.5385L82.3431 62.8018Z" fill="#333333"/>
</g>
<defs>
<clipPath id="clip0_404_4">
<rect width="68.478" height="68.478" fill="white" transform="translate(24 26)"/>
</clipPath>
</defs>
</svg>
