<svg width="76" height="75" viewBox="0 0 76 75" fill="none" xmlns="http://www.w3.org/2000/svg">
<g clip-path="url(#clip0_284_1196)">
<path d="M71.266 2.41989C70.3467 2.41989 69.501 2.72219 68.8055 3.22187C68.0579 2.01954 66.7346 1.21019 65.2175 1.21019C64.2982 1.21019 63.4525 1.51249 62.757 2.01217C62.0096 0.809835 60.6863 0.000488281 59.1693 0.000488281C56.8347 0.000488281 54.9353 1.89963 54.9353 4.23444V18.1105C52.0188 16.5271 48.9015 15.7261 45.639 15.7261C38.9145 15.7261 34.031 18.7478 31.1193 21.2833C30.0427 22.2197 29.4668 23.577 29.5382 25.0067C29.6108 26.4463 30.3269 27.7528 31.5051 28.586C33.2615 29.8282 35.6349 29.7002 37.2752 28.2763C38.9676 26.8078 41.7909 25.0585 45.639 25.0585C50.5055 25.0585 53.768 28.6088 54.9353 30.1198V42.4622C53.768 43.9732 50.5055 47.5223 45.639 47.5223C41.7899 47.5223 38.9663 45.773 37.2752 44.307C35.6337 42.8796 33.259 42.7562 31.5051 43.9961C30.3269 44.8296 29.6095 46.1361 29.5382 47.5754C29.4668 49.0054 30.0427 50.3624 31.1193 51.2988C34.0322 53.833 38.9145 56.8547 45.639 56.8547C47.5648 56.8547 49.4639 56.5669 51.3064 55.9984V75H71.8709V51.6882C74.1257 50.1084 75.5 47.5137 75.5 44.7579V6.65309C75.5 4.31904 73.6008 2.41989 71.266 2.41989ZM73.0806 44.7584C73.0806 46.8949 71.9204 48.8966 70.0528 49.9831L69.4515 50.3327V72.5811H53.7256V52.4762L52.0574 53.1608C49.9949 54.0075 47.8356 54.4358 45.6387 54.4358C39.6629 54.4358 35.307 51.7382 32.7072 49.4738C32.1943 49.0262 31.9197 48.3789 31.9535 47.6956C31.9886 47.0013 32.3333 46.371 32.9018 45.9694C33.7437 45.3719 34.8906 45.4385 35.6888 46.1328C37.6908 47.8698 41.0428 49.9397 45.6385 49.9397C52.0221 49.9397 56.0441 45.0658 57.1243 43.5708L57.3542 43.2563V29.3257L57.1243 29.0087C56.0441 27.5147 52.0218 22.6386 45.6385 22.6386C41.0453 22.6386 37.6921 24.7094 35.6888 26.4478C34.8916 27.1398 33.7459 27.2063 32.9018 26.6099C32.3333 26.2082 31.9886 25.578 31.9535 24.8837C31.9197 24.2014 32.1943 23.5531 32.7072 23.1055C35.308 20.8433 39.6629 18.1458 45.6387 18.1458C49.1215 18.1458 52.4262 19.1947 55.4637 21.2643L57.3545 22.5537V4.23444C57.3545 3.23407 58.1686 2.41989 59.169 2.41989C60.1694 2.41989 60.9836 3.23407 60.9836 4.23444V5.44415V29.0328H63.403V5.44415C63.403 4.44377 64.2171 3.62959 65.2175 3.62959C66.2179 3.62959 67.0321 4.44377 67.0321 5.44415V6.65385V29.0328H69.4515V6.65359C69.4515 5.65322 70.2657 4.83904 71.266 4.83904C72.2664 4.83904 73.0806 5.65322 73.0806 6.65359V44.7584Z" fill="#333333"/>
<path d="M25.9032 50.8071H18.7045L19.446 49.1125C19.7181 48.4932 19.855 47.8423 19.855 47.1783C19.855 44.5097 17.6848 42.3395 15.0162 42.3395C12.3476 42.3395 10.1774 44.5097 10.1774 47.1783C10.1774 47.8423 10.314 48.4932 10.5864 49.1125L11.3279 50.8071H4.12911C2.12835 50.8071 0.5 49.1788 0.5 47.178V39.9793L2.19465 40.7208C2.81398 40.9928 3.46481 41.1298 4.12885 41.1298C6.79746 41.1298 8.96766 38.9596 8.96766 36.291C8.96766 33.6224 6.79746 31.4522 4.12885 31.4522C3.46481 31.4522 2.81398 31.5888 2.19465 31.8611L0.5 32.6027V25.4039C0.5 23.4031 2.12835 21.7748 4.12911 21.7748H7.86084C7.792 21.3767 7.75796 20.9728 7.75796 20.5651C7.75796 16.5623 11.0131 13.3071 15.0159 13.3071C19.0187 13.3071 22.2739 16.5623 22.2739 20.5651C22.2739 20.9728 22.2401 21.3767 22.171 21.7748H25.9032C27.904 21.7748 29.5323 23.4031 29.5323 25.4039V29.1356C29.9304 29.0668 30.3343 29.0328 30.742 29.0328C34.7448 29.0328 38 32.2879 38 36.2907C38 40.2935 34.7448 43.5487 30.742 43.5487C30.3343 43.5487 29.9304 43.5149 29.5323 43.4458V47.1775C29.5323 49.1788 27.904 50.8071 25.9032 50.8071Z" fill="#F9BA48"/>
</g>
<defs>
<clipPath id="clip0_284_1196">
<rect width="75" height="75" fill="white" transform="translate(0.5)"/>
</clipPath>
</defs>
</svg>
