<svg width="103" height="84" viewBox="0 0 103 84" fill="none" xmlns="http://www.w3.org/2000/svg">
<path d="M90.9837 76.5485H82.7577C80.0366 76.5485 77.8224 74.3343 77.8224 71.6129V20.613H95.919V71.6132C95.9193 74.3343 93.7047 76.5485 90.9837 76.5485Z" fill="#3E71EF"/>
<path d="M69.5969 76.5485H61.3712C58.6502 76.5485 56.4359 74.3343 56.4359 71.6129V20.613H74.5325V71.6132C74.5322 74.3343 72.3179 76.5485 69.5969 76.5485Z" fill="#3E71EF"/>
<path d="M48.2095 76.5485H39.9839C37.2628 76.5485 35.0486 74.3343 35.0486 71.6129V20.613H53.1452V71.6132C53.1452 74.3343 50.9309 76.5485 48.2095 76.5485Z" fill="#3E71EF"/>
<path d="M0.5 0.871094V83.1292H102.5V0.871094H0.5ZM3.79032 4.16142H28.4676V79.8388H3.79032V4.16142ZM99.2097 79.8388H31.7579V4.16142H99.2097V79.8388Z" fill="#3E71EF"/>
<path d="M86.871 25.5483C83.6958 25.5483 81.113 28.1311 81.113 31.3063C81.113 34.4815 83.6958 37.0643 86.871 37.0643C90.0462 37.0643 92.629 34.4815 92.629 31.3063C92.629 28.1311 90.0459 25.5483 86.871 25.5483ZM86.871 33.7743C85.5103 33.7743 84.4034 32.667 84.4034 31.3067C84.4034 29.946 85.5107 28.839 86.871 28.839C88.2314 28.839 89.3387 29.9463 89.3387 31.3067C89.3387 32.667 88.2314 33.7743 86.871 33.7743Z" fill="white"/>
<path d="M90.9837 38.7097H87.6934V55.1613H90.9837V38.7097Z" fill="white"/>
<path d="M86.0484 38.7097H82.7581V55.1613H86.0484V38.7097Z" fill="white"/>
<path d="M65.4838 25.5483C62.3086 25.5483 59.7258 28.1311 59.7258 31.3063C59.7258 34.4815 62.3086 37.0643 65.4838 37.0643C68.659 37.0643 71.2418 34.4815 71.2418 31.3063C71.2418 28.1311 68.659 25.5483 65.4838 25.5483ZM65.4838 33.7743C64.1231 33.7743 63.0162 32.667 63.0162 31.3067C63.0162 29.946 64.1235 28.839 65.4838 28.839C66.8445 28.839 67.9515 29.9463 67.9515 31.3067C67.9515 32.667 66.8445 33.7743 65.4838 33.7743Z" fill="white"/>
<path d="M69.5968 38.7097H66.3065V55.1613H69.5968V38.7097Z" fill="white"/>
<path d="M64.6612 38.7097H61.3708V55.1613H64.6612V38.7097Z" fill="white"/>
<path d="M44.0968 25.5483C40.9216 25.5483 38.3389 28.1311 38.3389 31.3063C38.3389 34.4815 40.9216 37.0643 44.0968 37.0643C47.2721 37.0643 49.8548 34.4815 49.8548 31.3063C49.8548 28.1311 47.2721 25.5483 44.0968 25.5483ZM44.0968 33.7743C42.7361 33.7743 41.6292 32.667 41.6292 31.3067C41.6292 29.946 42.7365 28.839 44.0968 28.839C45.4572 28.839 46.5645 29.9463 46.5645 31.3067C46.5645 32.667 45.4572 33.7743 44.0968 33.7743Z" fill="white"/>
<path d="M48.2095 38.7097H44.9192V55.1613H48.2095V38.7097Z" fill="white"/>
<path d="M43.2742 38.7097H39.9839V55.1613H43.2742V38.7097Z" fill="white"/>
<path d="M7.08057 7.45166V20.613H25.1772V7.45166H7.08057ZM21.8868 17.3226H10.3709V10.742H21.8868V17.3226Z" fill="#3E71EF"/>
<path d="M7.08057 53.5163H25.1772V40.355H7.08057V53.5163ZM10.3709 43.6453H21.8868V50.226H10.3709V43.6453Z" fill="#3E71EF"/>
<path d="M16.1289 56.8064C11.1392 56.8064 7.08057 60.8667 7.08057 65.8547C7.08057 70.8427 11.1392 74.903 16.1289 74.903C21.1186 74.903 25.1772 70.8427 25.1772 65.8547C25.1772 60.8667 21.1186 56.8064 16.1289 56.8064ZM16.1289 71.6127C12.9537 71.6127 10.3709 69.0299 10.3709 65.8547C10.3709 62.6795 12.9537 60.0967 16.1289 60.0967C19.3041 60.0967 21.8868 62.6795 21.8868 65.8547C21.8868 69.0299 19.3041 71.6127 16.1289 71.6127Z" fill="#3E71EF"/>
</svg>
