<svg width="79" height="78" viewBox="0 0 79 78" fill="none" xmlns="http://www.w3.org/2000/svg">
<path d="M62.1454 7.54834H31.9521V10.0644H62.1454V7.54834Z" fill="#F9BA48"/>
<path d="M62.1454 12.5806H31.9521V15.0967H62.1454V12.5806Z" fill="#F9BA48"/>
<path d="M62.1454 32.7095H31.9521V35.2256H62.1454V32.7095Z" fill="#F9BA48"/>
<path d="M62.1454 37.7417H31.9521V40.2578H62.1454V37.7417Z" fill="#F9BA48"/>
<path d="M62.1454 57.8701H31.9521V60.3862H62.1454V57.8701Z" fill="#F9BA48"/>
<path d="M62.1454 62.9028H31.9521V65.4189H62.1454V62.9028Z" fill="#F9BA48"/>
<path d="M68.4353 22.6449V0H21.8875C15.6449 0 10.5649 5.07864 10.5649 11.3226C10.5649 14.664 12.0292 17.6632 14.339 19.7378V28.0687C12.0292 30.1433 10.5649 33.1425 10.5649 36.4839C10.5649 39.8253 12.0292 42.8245 14.339 44.8991V53.23C12.0292 55.3046 10.5649 58.3038 10.5649 61.6452C10.5649 64.9866 12.0292 67.9858 14.339 70.0604V78H21.4066L23.9227 72.9678H55.0757L57.5918 78H64.6608V72.9678H68.435V50.3221H64.6608V47.806H68.435V25.161H64.6608V22.6449H68.4353ZM13.081 11.3226C13.081 6.46779 17.0314 2.5161 21.8873 2.5161H65.9192V20.1288H21.8875C17.0314 20.1288 13.081 16.1774 13.081 11.3226ZM16.8553 75.4831V71.7719C18.1586 72.4222 19.6017 72.8261 21.1288 72.9281L19.8518 75.4831H16.8553ZM62.1449 75.4831H59.1481L57.8902 72.967H62.1449V75.4831ZM65.9192 70.4509H56.6323H22.3679H21.8873C17.0311 70.4509 13.081 66.4995 13.081 61.6444C13.081 56.7893 17.0314 52.8379 21.8873 52.8379H65.9192V70.4509ZM62.1449 50.3221H21.8873C20.0781 50.3221 18.3736 50.7587 16.8551 51.5172V46.6119C18.3736 47.3693 20.0781 47.807 21.8873 47.807H62.1449V50.3221ZM65.9192 45.2899H21.8875C17.0314 45.2899 13.0813 41.3384 13.0813 36.4834C13.0813 31.6283 17.0317 27.6769 21.8875 27.6769H65.9192V45.2899ZM62.1449 25.161H21.8873C20.0781 25.161 18.3736 25.5977 16.8551 26.3561V21.4512C18.3736 22.2085 20.0781 22.6463 21.8873 22.6463H62.1449V25.161Z" fill="#333333"/>
<path d="M21.8876 17.6127C25.3559 17.6127 28.1777 14.791 28.1777 11.3224C28.1777 7.85375 25.3559 5.03223 21.8876 5.03223C18.4192 5.03223 15.5972 7.85402 15.5972 11.3226C15.5972 14.7912 18.419 17.6127 21.8876 17.6127ZM21.8876 7.54833C23.9683 7.54833 25.6616 9.24157 25.6616 11.3226C25.6616 13.4037 23.9683 15.0966 21.8876 15.0966C19.8068 15.0966 18.1135 13.4034 18.1135 11.3224C18.1135 9.2413 19.8065 7.54833 21.8876 7.54833Z" fill="#333333"/>
<path d="M33.2099 5.03223H30.6938V17.6127H33.2099V5.03223Z" fill="#333333"/>
<path d="M38.2422 5.03223H35.7261V17.6127H38.2422V5.03223Z" fill="#333333"/>
<path d="M43.2744 5.03223H40.7583V17.6127H43.2744V5.03223Z" fill="#333333"/>
<path d="M48.3066 5.03223H45.7905V17.6127H48.3066V5.03223Z" fill="#333333"/>
<path d="M53.3389 5.03223H50.8228V17.6127H53.3389V5.03223Z" fill="#333333"/>
<path d="M58.3711 5.03223H55.855V17.6127H58.3711V5.03223Z" fill="#333333"/>
<path d="M63.4033 5.03223H60.8872V17.6127H63.4033V5.03223Z" fill="#333333"/>
<path d="M15.5972 36.4838C15.5972 39.9521 18.419 42.7741 21.8873 42.7741C25.3556 42.7741 28.1774 39.9523 28.1774 36.4838C28.1774 33.0152 25.3559 30.1934 21.8876 30.1934C18.4192 30.1934 15.5972 33.0152 15.5972 36.4838ZM25.6616 36.4838C25.6616 38.5645 23.9683 40.258 21.8876 40.258C19.8068 40.258 18.1135 38.5648 18.1135 36.4838C18.1135 34.4027 19.8068 32.7095 21.8876 32.7095C23.9683 32.7095 25.6616 34.4027 25.6616 36.4838Z" fill="#333333"/>
<path d="M33.2099 30.1934H30.6938V42.7739H33.2099V30.1934Z" fill="#333333"/>
<path d="M38.2422 30.1934H35.7261V42.7739H38.2422V30.1934Z" fill="#333333"/>
<path d="M43.2744 30.1934H40.7583V42.7739H43.2744V30.1934Z" fill="#333333"/>
<path d="M48.3066 30.1934H45.7905V42.7739H48.3066V30.1934Z" fill="#333333"/>
<path d="M53.3389 30.1934H50.8228V42.7739H53.3389V30.1934Z" fill="#333333"/>
<path d="M58.3711 30.1934H55.855V42.7739H58.3711V30.1934Z" fill="#333333"/>
<path d="M63.4033 30.1934H60.8872V42.7739H63.4033V30.1934Z" fill="#333333"/>
<path d="M15.5972 61.6444C15.5972 65.1127 18.419 67.9348 21.8873 67.9348C25.3556 67.9348 28.1774 65.113 28.1774 61.6444C28.1774 58.1758 25.3559 55.354 21.8876 55.354C18.4192 55.354 15.5972 58.1758 15.5972 61.6444ZM25.6616 61.6444C25.6616 63.7252 23.9683 65.4187 21.8876 65.4187C19.8068 65.4187 18.1135 63.7255 18.1135 61.6444C18.1135 59.5633 19.8068 57.8701 21.8876 57.8701C23.9683 57.8701 25.6616 59.5633 25.6616 61.6444Z" fill="#333333"/>
<path d="M33.2099 55.354H30.6938V67.9345H33.2099V55.354Z" fill="#333333"/>
<path d="M38.2422 55.354H35.7261V67.9345H38.2422V55.354Z" fill="#333333"/>
<path d="M43.2744 55.354H40.7583V67.9345H43.2744V55.354Z" fill="#333333"/>
<path d="M48.3066 55.354H45.7905V67.9345H48.3066V55.354Z" fill="#333333"/>
<path d="M53.3389 55.354H50.8228V67.9345H53.3389V55.354Z" fill="#333333"/>
<path d="M58.3711 55.354H55.855V67.9345H58.3711V55.354Z" fill="#333333"/>
<path d="M63.4033 55.354H60.8872V67.9345H63.4033V55.354Z" fill="#333333"/>
</svg>
