<svg width="103" height="103" viewBox="0 0 103 103" fill="none" xmlns="http://www.w3.org/2000/svg">
<path d="M81.4031 83.0644H21.597V53.1611H81.4035V83.0644H81.4031Z" fill="#3E71EF"/>
<path d="M23.258 43.194C24.1756 43.194 24.9195 42.4502 24.9195 41.5326C24.9195 40.615 24.1756 39.8711 23.258 39.8711C22.3404 39.8711 21.5966 40.615 21.5966 41.5326C21.5966 42.4502 22.3404 43.194 23.258 43.194Z" fill="#3E71EF"/>
<path d="M29.9033 43.194C30.8209 43.194 31.5648 42.4502 31.5648 41.5326C31.5648 40.615 30.8209 39.8711 29.9033 39.8711C28.9857 39.8711 28.2418 40.615 28.2418 41.5326C28.2418 42.4502 28.9857 43.194 29.9033 43.194Z" fill="#3E71EF"/>
<path d="M36.5484 43.194C37.466 43.194 38.2099 42.4502 38.2099 41.5326C38.2099 40.615 37.466 39.8711 36.5484 39.8711C35.6308 39.8711 34.887 40.615 34.887 41.5326C34.887 42.4502 35.6308 43.194 36.5484 43.194Z" fill="#3E71EF"/>
<path d="M103 41.5324C103 32.5932 96.654 25.1074 88.0117 23.5558C87.3008 10.4462 76.4112 0 63.129 0C54.1565 0 45.825 4.9323 41.436 12.7024C39.9128 11.9981 38.2531 11.6292 36.5484 11.6292C32.4766 11.6292 28.722 13.7773 26.6271 17.2044C24.984 16.8124 23.2978 16.6129 21.5966 16.6129C9.68882 16.6129 0 26.3017 0 38.2099C0 47.6144 6.09016 55.8612 14.9514 58.7234V103H88.0482V59.4942C96.6688 57.9224 103 50.4568 103 41.5324ZM84.7256 46.5161H73.0968V36.5484H84.7256V46.5161ZM69.7742 46.5161H18.2744V36.5484H69.7742V46.5161ZM18.2744 99.6774V49.8387H84.726V99.6774H18.2744ZM88.0482 56.1V33.2258H14.9518V55.1963C8.01247 52.4932 3.32294 45.7967 3.32294 38.2095C3.32294 28.1337 11.5215 19.9351 21.597 19.9351C23.431 19.9351 25.2403 20.2077 26.9811 20.7442L28.3817 21.1745L28.985 19.8405C30.3289 16.8702 33.2977 14.9514 36.5487 14.9514C38.2134 14.9514 39.8182 15.4416 41.1904 16.3701L42.7934 17.4518L43.6206 15.7024C47.1824 8.18188 54.8408 3.32258 63.129 3.32258C75.0372 3.32258 84.7256 13.011 84.7292 24.8164L84.721 26.5094L86.2177 26.6572C93.8928 27.4163 99.6774 33.8124 99.6774 41.5324C99.6774 48.6242 94.7898 54.5849 88.0482 56.1Z" fill="#3E71EF"/>
<path d="M51.5001 59.8066H28.2421V76.4195H51.5001V59.8066ZM48.1775 73.097H31.5646V63.1292H48.1775V73.097Z" fill="white"/>
<path d="M74.7584 59.8066H54.8229V63.1292H74.7584V59.8066Z" fill="white"/>
<path d="M74.7584 66.4517H54.8229V69.7742H74.7584V66.4517Z" fill="white"/>
<path d="M74.7584 73.0969H54.8229V76.4195H74.7584V73.0969Z" fill="white"/>
<path d="M21.597 98.0162H38.21V86.387H21.597V98.0162ZM24.9196 89.7095H34.8874V94.6936H24.9196V89.7095Z" fill="#3E71EF"/>
<path d="M41.5323 98.0162H61.4678V86.387H41.5323V98.0162ZM44.8549 89.7095H58.1453V94.6936H44.8549V89.7095Z" fill="#3E71EF"/>
<path d="M64.7902 98.0162H81.4031V86.387H64.7902V98.0162ZM68.1127 89.7095H78.0805V94.6936H68.1127V89.7095Z" fill="#3E71EF"/>
</svg>
