<svg width="88" height="87" viewBox="0 0 88 87" fill="none" xmlns="http://www.w3.org/2000/svg">
<g clip-path="url(#clip0_336_782)">
<path d="M24.355 47.7091H63.6451C64.5222 47.7091 65.2939 48.1189 65.8088 48.7488C66.2129 47.0622 66.4515 45.311 66.4515 43.4993C66.4515 31.0992 56.4001 21.0479 44 21.0479C31.5999 21.0479 21.5486 31.0992 21.5486 43.4993C21.5486 45.311 21.7857 47.0622 22.1913 48.7488C22.7062 48.1189 23.4779 47.7091 24.355 47.7091Z" fill="#F9BA48"/>
<path d="M63.6448 46.3062H24.355C22.0341 46.3062 20.1455 48.1948 20.1455 50.516V75.7738C20.1455 78.0947 22.0341 79.9836 24.355 79.9836H34.1774V84.1934H31.3709V86.9999H34.1774H53.8224H56.6288V84.1934H53.8224V79.9836H63.6448C65.9656 79.9836 67.8546 78.095 67.8546 75.7738V50.5157C67.8546 48.1948 65.9659 46.3062 63.6448 46.3062ZM51.016 84.1928H36.9838V79.983H51.016V84.1928ZM65.0481 75.7735C65.0481 76.5468 64.4195 77.1769 63.6448 77.1769H53.8224H34.1774H24.355C23.5803 77.1769 22.9519 76.5468 22.9519 75.7735V50.5157C22.9519 49.7424 23.5806 49.1123 24.355 49.1123H63.6451C64.4198 49.1123 65.0484 49.7424 65.0484 50.5157V75.7735H65.0481Z" fill="#333333"/>
<path d="M24.355 75.774H63.645V50.5161H24.355V75.774ZM27.1614 53.3225H60.8386V72.9676H27.1614V53.3225Z" fill="#333333"/>
<path d="M22.9524 26.6613V4.2098C22.9524 1.88862 21.0638 0 18.7429 0H4.71077C2.38959 0 0.500977 1.88862 0.500977 4.2098V26.6613C0.500977 28.9821 2.38959 30.8711 4.71047 30.8711H18.7426C21.0638 30.8708 22.9524 28.9821 22.9524 26.6613ZM4.71077 2.80643H18.7429C19.5177 2.80643 20.146 3.43657 20.146 4.2098V22.4515H3.30741V4.2098C3.30741 3.43657 3.93605 2.80643 4.71077 2.80643ZM18.7429 28.0643H11.7267H4.71077C3.93605 28.0643 3.30771 27.4342 3.30771 26.661V25.2576H11.7267H20.146V26.661C20.146 27.4342 19.5174 28.0643 18.7429 28.0643Z" fill="#333333"/>
<path d="M11.7261 28.0645C12.5012 28.0645 13.1295 27.4362 13.1295 26.6612C13.1295 25.8861 12.5012 25.2578 11.7261 25.2578C10.9511 25.2578 10.3228 25.8861 10.3228 26.6612C10.3228 27.4362 10.9511 28.0645 11.7261 28.0645Z" fill="#333333"/>
<path d="M84.6933 16.8386V4.2098C84.6933 1.88862 82.8046 0 80.4835 0H60.8384C58.5176 0 56.6289 1.88862 56.6289 4.2098V16.8386H53.8225V22.4515C53.8225 23.9991 55.0813 25.2579 56.6289 25.2579H84.6933C86.2409 25.2579 87.4997 23.9991 87.4997 22.4515V16.8386H84.6933ZM59.4354 4.2098C59.4354 3.43657 60.064 2.80643 60.8387 2.80643H80.4838C81.2582 2.80643 81.8868 3.43657 81.8868 4.2098V16.8386H72.0645V18.242H69.258V16.8386H59.4357V4.2098H59.4354ZM84.6933 22.4515H56.6289V19.645H66.4513V21.0484H74.8706V19.645H84.693L84.6933 22.4515Z" fill="#333333"/>
<path d="M11.6714 34.07L8.9772 33.2842C8.00909 36.6112 7.51636 40.0478 7.51636 43.4996C7.51636 52.1814 10.626 60.5977 16.2724 67.1985L18.4053 65.3742C13.1939 59.2815 10.3228 51.5118 10.3228 43.4996C10.3231 40.313 10.7763 37.1404 11.6714 34.07Z" fill="#333333"/>
<path d="M53.4309 11.1696L54.2152 8.47546C50.8882 7.50735 47.4517 7.01611 43.9998 7.01611C37.291 7.01611 30.7295 8.85444 25.0269 12.3329L26.4877 14.7283C34.4568 9.86715 44.3845 8.53712 53.4309 11.1696Z" fill="#333333"/>
<path d="M74.2461 28.6831C76.5221 33.3207 77.677 38.3064 77.677 43.4996C77.677 51.5121 74.8059 59.2815 69.5945 65.3742L71.7274 67.1985C77.3741 60.5977 80.4835 52.1811 80.4835 43.4996C80.4835 37.8727 79.2319 32.4717 76.7649 27.4453L74.2461 28.6831Z" fill="#333333"/>
</g>
<defs>
<clipPath id="clip0_336_782">
<rect width="87" height="87" fill="white" transform="translate(0.5)"/>
</clipPath>
</defs>
</svg>
