<svg width="78" height="78" viewBox="0 0 78 78" fill="none" xmlns="http://www.w3.org/2000/svg">
<g clip-path="url(#clip0_284_1497)">
<path d="M64.9022 78H54.0968V75.484C54.0968 71.9399 52.4034 68.5534 49.5665 66.4259L51.0773 64.413C54.5433 67.0134 56.6128 71.1524 56.6128 75.484H63.4202L67.1592 68.7545C68.489 66.3604 69.1935 63.6454 69.1935 60.9054C69.1935 55.4884 66.5024 50.4611 61.995 47.4556L54.6569 42.5629L56.0519 40.4695L63.3901 45.3622C68.5996 48.8343 71.7096 54.6456 71.7096 60.9054C71.7096 64.0734 70.8968 67.2096 69.3581 69.9772L64.9022 78Z" fill="#333333"/>
<path d="M23.9032 78H13.0978L8.64161 69.9762C7.10289 67.2096 6.29016 64.072 6.29016 60.9054C6.29016 54.6453 9.4001 48.8343 14.6086 45.3622L21.9467 40.4695L23.3418 42.5629L16.0036 47.4556C11.4973 50.4598 8.80646 55.4881 8.80646 60.9054C8.80646 63.6467 9.51099 66.3604 10.8408 68.7545L14.5798 75.484H21.3872C21.3872 71.1524 23.4567 67.0134 26.9213 64.413L28.4321 66.4259C25.5966 68.5532 23.9032 71.9399 23.9032 75.484V78Z" fill="#333333"/>
<path d="M35.2245 67.9353H32.7095C26.4657 67.9353 21.387 62.8565 21.387 56.6128V35.2258C21.387 20.5179 28.0874 0 39 0C49.9126 0 56.6128 20.5179 56.6128 35.2258V56.6128C56.6128 62.8565 51.534 67.9353 45.2902 67.9353H42.7742H35.2245Z" fill="#F9BA48"/>
<circle cx="38.5" cy="40.5" r="4.5" fill="white"/>
<path d="M27.6772 30.1935H25.1611V64.1611H27.6772V30.1935Z" fill="#333333"/>
<path d="M52.8385 30.1935H50.3225V64.1611H52.8385V30.1935Z" fill="#333333"/>
<path d="M40.2578 34.0947V10.0645H37.7418V34.0947C34.8746 34.6798 32.7095 37.2197 32.7095 40.2579C32.7095 43.7263 35.5313 46.5482 38.9997 46.5482C42.4681 46.5482 45.2899 43.7263 45.2899 40.2579C45.2902 37.221 43.1251 34.6798 40.2578 34.0947ZM39 44.0321C36.9191 44.0321 35.2258 42.3387 35.2258 40.2579C35.2258 38.1771 36.9191 36.4838 39 36.4838C41.0808 36.4838 42.7741 38.1771 42.7741 40.2579C42.7741 42.339 41.0808 44.0321 39 44.0321Z" fill="#333333"/>
<path d="M40.2579 59.3077V49.0645H37.7418V59.3077C35.5767 59.8699 33.9677 61.8237 33.9677 64.1612V77.9998H44.0321V64.1612C44.0321 61.8237 42.423 59.8699 40.2579 59.3077ZM41.516 75.4838H36.4837V64.1612C36.4837 62.7736 37.6122 61.6452 38.9997 61.6452C40.3873 61.6452 41.5158 62.7736 41.5158 64.1612L41.516 75.4838Z" fill="#333333"/>
<path d="M78 1.25818H75.484V35.2258H78V1.25818Z" fill="#333333"/>
<path d="M78 37.7418H75.484V40.2579H78V37.7418Z" fill="#333333"/>
<path d="M2.51603 6.29028H0V41.5161H2.51603V6.29028Z" fill="#333333"/>
<path d="M2.51603 44.032H0V46.548H2.51603V44.032Z" fill="#333333"/>
<path d="M11.3226 1.25818H8.80652V30.1935H11.3226V1.25818Z" fill="#333333"/>
<path d="M11.3226 32.7095H8.80652V35.2255H11.3226V32.7095Z" fill="#333333"/>
<path d="M66.6771 3.77417H64.1611V26.4193H66.6771V3.77417Z" fill="#333333"/>
<path d="M66.6771 28.9353H64.1611V31.4513H66.6771V28.9353Z" fill="#333333"/>
</g>
<defs>
<clipPath id="clip0_284_1497">
<rect width="78" height="78" fill="white"/>
</clipPath>
</defs>
</svg>
