<svg width="83" height="83" viewBox="0 0 83 83" fill="none" xmlns="http://www.w3.org/2000/svg">
<g clip-path="url(#clip0_336_660)">
<path d="M37.4837 56.2256H16.0645V72.29H42.8386V56.2256H40.1611H37.4837Z" fill="#F9BA48"/>
<path d="M37.4837 5.35498H16.0645V21.4194H42.8386V5.35498H40.1611H37.4837Z" fill="#F9BA48"/>
<path d="M78.9835 32.1289H60.2416C60.2416 29.9147 58.4398 28.1127 56.2256 28.1127C54.0114 28.1127 52.2094 29.9145 52.2094 32.1289V37.4837H30.7901V32.1289H38.8223V29.4515H36.1449V26.7741H44.1771C46.3913 26.7741 48.1931 24.9723 48.1931 22.7578V4.01626C48.1934 1.80179 46.3916 0 44.1774 0H14.7259C12.5114 0 10.7096 1.80179 10.7096 4.01626V22.7581C10.7096 24.9723 12.5114 26.7744 14.7256 26.7744H22.7578V29.4518H20.0804V32.1292H28.1127V37.484H12.2653L8.11791 36.1012L0 37.7248V45.2738L8.11791 46.8977L12.2653 45.516H28.1129V50.8708H14.7259C12.5117 50.8708 10.7099 52.6726 10.7099 54.8871V73.6289C10.7099 75.8431 12.5117 77.6452 14.7259 77.6452H22.7581V80.3226H20.0807V83H38.8226V80.3226H36.1452V77.6452H44.1774C46.3916 77.6452 48.1934 75.8434 48.1934 73.6289V54.8871C48.1934 52.6729 46.3916 50.8708 44.1774 50.8708H30.7904V45.516H52.2096V50.8708C52.2096 53.085 54.0114 54.8871 56.2259 54.8871C58.4404 54.8871 60.2419 53.0853 60.2419 50.8708H78.9837C81.1979 50.8708 83 49.069 83 46.8545V36.1449C82.9997 33.9307 81.1979 32.1289 78.9835 32.1289ZM13.3871 22.7581V4.01626C13.3871 3.27858 13.9882 2.67741 14.7256 2.67741H44.1771C44.9148 2.67741 45.5157 3.27858 45.5157 4.01626V22.7581C45.5157 23.4958 44.9145 24.097 44.1771 24.097H14.7259C13.9882 24.0967 13.3871 23.4955 13.3871 22.7581ZM25.4355 26.7741H33.4678V29.4515H25.4355V26.7741ZM33.4678 80.3223H25.4355V77.6449H33.4678V80.3223ZM45.516 54.8871V73.6289C45.516 74.3677 44.9148 74.9678 44.1774 74.9678H14.7259C13.9882 74.9678 13.3873 74.368 13.3873 73.6289V54.8871C13.3873 54.1482 13.9885 53.5482 14.7259 53.5482H44.1774C44.9148 53.5482 45.516 54.1479 45.516 54.8871ZM11.8314 42.8386L7.94655 44.1343L2.67741 43.0807V39.9201L7.94655 38.8666L11.8314 40.1612H52.2094V42.8386H11.8314ZM56.2256 52.2096C55.4879 52.2096 54.8868 51.6099 54.8868 50.8708V45.516V37.4837V32.1289C54.8868 31.3912 55.4879 30.7901 56.2256 30.7901C56.9633 30.7901 57.5645 31.3912 57.5645 32.1289V50.8708C57.5642 51.6096 56.9633 52.2096 56.2256 52.2096ZM80.3223 46.8548C80.3223 47.5936 79.7211 48.1937 78.9835 48.1937H60.2416V45.5163H77.6446V42.8386H60.2416V40.1612H77.6446V37.4837H60.2416V34.8063H78.9835C79.7211 34.8063 80.3223 35.4075 80.3223 36.1452V46.8548Z" fill="#333333"/>
</g>
<defs>
<clipPath id="clip0_336_660">
<rect width="83" height="83" fill="white"/>
</clipPath>
</defs>
</svg>
