<svg width="83" height="83" viewBox="0 0 83 83" fill="none" xmlns="http://www.w3.org/2000/svg">
<g clip-path="url(#clip0_284_1526)">
<path d="M48.1938 26.7741H34.8067V19.0633C32.2794 17.0338 30.7905 13.9628 30.7905 10.7099C30.7905 4.80448 35.595 0 41.5001 0C47.4052 0 52.2097 4.80448 52.2097 10.7096C52.2097 13.9639 50.7211 17.035 48.1935 19.063L48.1938 26.7741Z" fill="#FFD486"/>
<circle cx="41.5" cy="45.5" r="13.5" fill="white"/>
<path d="M49.5322 20.0807H42.8385V14.4795C44.3929 13.9254 45.516 12.4526 45.516 10.7096C45.516 8.49539 43.714 6.69336 41.4998 6.69336C39.2856 6.69336 37.4836 8.49539 37.4836 10.7096C37.4836 12.4526 38.6067 13.9251 40.1611 14.4795V20.0807H33.4674V22.7582H49.5319L49.5322 20.0807ZM41.5001 9.37082C42.2392 9.37082 42.8388 9.97188 42.8388 10.7096C42.8388 11.4472 42.2392 12.0483 41.5001 12.0483C40.761 12.0483 40.1614 11.4472 40.1614 10.7096C40.1611 9.97188 40.761 9.37082 41.5001 9.37082Z" fill="#333333"/>
<path d="M53.2712 57.7771L51.8201 60.029C56.2551 62.8883 58.9031 67.7333 58.9031 72.9876V80.3222H42.2685L52.0275 63.5937L49.713 62.2443L41.5001 76.3274L33.2859 62.2445L30.9713 63.594L40.7318 80.3225H24.0969V72.9879C24.0969 67.7322 26.7448 62.8872 31.1799 60.0278L29.7287 57.776C24.5251 61.1335 21.4194 66.8191 21.4194 72.9879V83H61.5806V72.9879C61.5808 66.8188 58.4749 61.1332 53.2712 57.7771Z" fill="#333333"/>
<path d="M26.6498 45.5695C26.6498 53.7194 33.2791 60.3487 41.429 60.3487C49.5789 60.3487 56.2082 53.7194 56.2082 45.5695C56.2082 37.4207 49.5789 30.7903 41.429 30.7903C33.2791 30.7903 26.6498 37.421 26.6498 45.5695ZM53.531 45.5695C53.531 52.2415 48.1013 57.6715 41.429 57.6715C34.7567 57.6715 29.327 52.2418 29.327 45.5695C29.327 38.896 34.7567 33.4675 41.429 33.4675C48.1013 33.4675 53.531 38.896 53.531 45.5695Z" fill="#333333"/>
<path d="M23.3445 50.5013C22.2374 50.8173 21.1155 50.9778 20.0112 50.9778C13.3392 50.9778 7.90918 45.5481 7.90918 38.8758C7.90918 32.2024 13.3389 26.7738 20.0112 26.7738C23.6538 26.7738 27.0675 28.3936 29.3795 31.2195L31.4531 29.5235C28.6297 26.0749 24.4598 24.0963 20.0098 24.0963C11.8599 24.0963 5.23059 30.727 5.23059 38.8755C5.23059 47.0254 11.8599 53.6547 20.0098 53.6547C21.3631 53.6547 22.7314 53.4593 24.078 53.075L23.3445 50.5013Z" fill="#333333"/>
<path d="M2.67771 66.294C2.67771 61.0383 5.32566 56.1933 9.76073 53.334L8.30955 51.0822C3.10615 54.4399 0.000244141 60.1252 0.000244141 66.294V76.3061H17.4035V73.6286H2.67771V66.294Z" fill="#333333"/>
<path d="M77.6278 38.8761C77.6278 30.7273 70.9985 24.0969 62.8486 24.0969C58.4001 24.0969 54.2301 26.0755 51.4067 29.5241L53.4803 31.2201C55.7923 28.3942 59.2072 26.7744 62.8486 26.7744C69.5207 26.7744 74.9506 32.203 74.9506 38.8764C74.9506 45.5484 69.5209 50.9784 62.8486 50.9784C61.7441 50.9784 60.6224 50.8179 59.5153 50.5019L58.7776 53.0748C60.1242 53.4602 61.4939 53.657 62.8486 53.657C70.9985 53.6553 77.6278 47.026 77.6278 38.8761Z" fill="#333333"/>
<path d="M74.6906 51.0837L73.2394 53.3356C77.6745 56.1949 80.3224 61.0399 80.3224 66.2942V73.6288H66.9354H64.2579V76.3063H82.9999V66.2942C82.9999 60.1251 79.8937 54.4398 74.6906 51.0837Z" fill="#333333"/>
</g>
<defs>
<clipPath id="clip0_284_1526">
<rect width="83" height="83" fill="white"/>
</clipPath>
</defs>
</svg>
