<svg width="16" height="13" viewBox="0 0 16 13" fill="none" xmlns="http://www.w3.org/2000/svg">
<path d="M15.2045 2.01067C14.6353 2.25635 14.0313 2.41776 13.4128 2.48951C14.0644 2.1105 14.5518 1.51418 14.7843 0.811733C14.1731 1.16708 13.5038 1.41816 12.8054 1.55411C12.3353 1.06867 11.7137 0.747225 11.0368 0.63949C10.3598 0.531754 9.66514 0.643728 9.06023 0.958097C8.45533 1.27246 7.97386 1.77171 7.6903 2.37864C7.40673 2.98557 7.33685 3.66637 7.49147 4.31576C6.25152 4.25479 5.03863 3.94105 3.93161 3.39492C2.82459 2.84879 1.84819 2.08249 1.06584 1.1458C0.666891 1.81309 0.544763 2.60306 0.724339 3.35479C0.903915 4.10652 1.37169 4.76345 2.03236 5.19176C1.53749 5.17926 1.05286 5.05199 0.618877 4.82058V4.85769C0.619562 5.55711 0.869041 6.2348 1.32506 6.77597C1.78107 7.31714 2.41559 7.68852 3.12113 7.82721C2.66146 7.9487 2.17928 7.96648 1.71146 7.87917C1.91062 8.4816 2.29873 9.0084 2.82142 9.38581C3.3441 9.76321 3.9752 9.97231 4.6263 9.98382C3.52333 10.8207 2.16347 11.2742 0.764046 11.2718C0.508751 11.2732 0.253605 11.2595 0 11.231C1.42538 12.1215 3.0845 12.5945 4.77911 12.5933C10.5094 12.5933 13.6497 7.97568 13.6497 3.97426V3.5808C14.2599 3.15139 14.7864 2.61969 15.2045 2.01067Z" fill="white"/>
</svg>
