<svg width="84" height="84" viewBox="0 0 84 84" fill="none" xmlns="http://www.w3.org/2000/svg">
<g clip-path="url(#clip0_284_700)">
<path d="M59.945 80.3032H49.2881V56.3251H14.653V80.3032H3.99617V47.0002H1.33203V82.9673H14.6533H49.2881H62.6094V47.0002H59.9452L59.945 80.3032ZM17.3174 58.9893H30.6386V80.3032H17.3174V58.9893ZM33.3028 80.3032V58.9893H46.624V80.3032H33.3028Z" fill="#333333"/>
<path d="M83.0198 18.4556L75.3509 0.0526123L46.8276 9.56116C42.4235 7.10741 37.3588 5.70469 31.9706 5.70469C15.0754 5.70469 1.33203 19.4495 1.33203 36.3432H3.99617C3.99617 20.9174 16.5461 8.36883 31.9706 8.36883C47.395 8.36883 59.945 20.9174 59.945 36.3432H62.6091C62.6091 32.9729 62.0536 29.7319 61.0438 26.6974L83.0198 18.4556ZM79.4977 16.9318L75.2736 18.5156L69.5561 4.79353L73.8456 3.36409L79.4977 16.9318ZM49.7316 11.4023L67.0225 5.63817L72.7786 19.451L60.0982 24.2067C57.8642 19.0512 54.2528 14.6299 49.7316 11.4023Z" fill="#333333"/>
<path d="M45.2925 36.3435H47.9566C47.9566 27.5289 40.7858 20.3582 31.9712 20.3582C23.1566 20.3582 15.9858 27.5289 15.9858 36.3435H18.65C18.65 28.9982 24.6259 23.0223 31.9712 23.0223C39.3166 23.0223 45.2925 28.9982 45.2925 36.3435Z" fill="#333333"/>
<path d="M33.3028 29.6827H30.6387V32.3469H33.3028V29.6827Z" fill="#333333"/>
<path d="M38.6309 29.6827H35.9668V32.3469H38.6309V29.6827Z" fill="#333333"/>
<path d="M27.9742 29.6827H25.3101V32.3469H27.9742V29.6827Z" fill="#333333"/>
<path d="M27.9742 66.9821H25.3101V72.3106H27.9742V66.9821Z" fill="#333333"/>
<path d="M38.6309 66.9821H35.9668V72.3106H38.6309V66.9821Z" fill="#333333"/>
<path d="M63.9415 35.0114H0V48.3326H63.9415V35.0114Z" fill="#F9BA48"/>
</g>
<defs>
<clipPath id="clip0_284_700">
<rect width="83.02" height="83.02" fill="white"/>
</clipPath>
</defs>
</svg>
